<?xml version="1.0" encoding="UTF-8"?>
<svg version="1.1" xmlns="http://www.w3.org/2000/svg" width="119" height="122">
<path d="M0 0 C0.72915115 -0.00511093 1.45830231 -0.01022186 2.20954895 -0.01548767 C4.61138198 -0.0293461 7.01292674 -0.02842938 9.41479492 -0.02612305 C11.09242356 -0.0300128 12.77005122 -0.03434805 14.44767761 -0.03910828 C17.9622212 -0.04656299 21.47666433 -0.04628521 24.99121094 -0.04101562 C29.48005633 -0.03523011 33.96848787 -0.05213324 38.4572649 -0.0753603 C41.92240273 -0.09014379 45.38744204 -0.09096294 48.85260582 -0.08785057 C50.50669866 -0.08836173 52.16079732 -0.09356076 53.81485939 -0.10366249 C56.13595497 -0.11609595 58.4562594 -0.10919412 60.77734375 -0.09765625 C62.09462967 -0.09828568 63.41191559 -0.0989151 64.76911926 -0.0995636 C73.00057781 0.70816542 79.07573518 4.19103912 84.58276367 10.2746582 C91.77346251 20.18856724 90.7904198 31.44770685 90.89135742 43.20043945 C90.89792925 43.96268515 90.90450108 44.72493084 90.91127205 45.51027489 C90.94370574 49.54296389 90.96819859 53.5756282 90.98779297 57.60839844 C91.00560336 60.92259439 91.04044114 64.23593912 91.09033203 67.54980469 C91.15088691 71.57918618 91.18131385 75.60777951 91.19096565 79.63759422 C91.19945656 81.16090297 91.218115 82.68419424 91.24770927 84.20723915 C91.43795812 94.55199889 90.30179371 102.9448436 83.10887146 110.90596008 C76.25328992 117.02423015 69.5118877 119.38210892 60.47851562 119.45166016 C59.77062393 119.45823135 59.06273224 119.46480255 58.33338928 119.47157288 C55.99593995 119.49124507 53.65855476 119.50295629 51.32104492 119.51293945 C50.51953695 119.51701498 49.71802898 119.52109051 48.89223289 119.52528954 C44.64788448 119.54612671 40.40356814 119.56043727 36.15917969 119.56982422 C31.79252324 119.58086981 27.426379 119.61525472 23.05990314 119.65499592 C19.68738408 119.68124171 16.31498547 119.68952319 12.94237328 119.6931057 C11.33373756 119.69795293 9.72510656 119.70951337 8.11657143 119.72814369 C-2.45908982 119.84299725 -11.4222073 119.35378446 -19.72973633 112.0246582 C-20.34461914 111.50387695 -20.95950195 110.9830957 -21.59301758 110.4465332 C-26.29116444 104.85302216 -28.01663062 99.29516543 -27.96655273 92.08959961 C-27.98188553 90.92688286 -27.98188553 90.92688286 -27.99752808 89.74067688 C-28.02511421 87.20220233 -28.02342286 84.66482645 -28.01879883 82.1262207 C-28.0265844 80.34556686 -28.03525613 78.56491669 -28.04476929 76.78427124 C-28.05964951 73.06056657 -28.05914404 69.33724129 -28.04858398 65.61352539 C-28.03700234 60.86332382 -28.07085446 56.11468395 -28.11727333 51.36474037 C-28.14687136 47.68929102 -28.14847496 44.01421245 -28.14225388 40.33866501 C-28.14327424 38.58851403 -28.15363514 36.83834063 -28.17387772 35.08830643 C-28.29147164 23.50081712 -27.5149692 15.52258154 -19.03833008 6.8371582 C-18.31774414 6.3215332 -17.5971582 5.8059082 -16.85473633 5.2746582 C-15.76999023 4.4702832 -15.76999023 4.4702832 -14.66333008 3.6496582 C-9.72350723 0.62562752 -5.79078245 0.02029083 0 0 Z M-11.41723633 17.2746582 C-18.11981454 25.38830551 -17.72519337 34.00789951 -17.71801758 44.0559082 C-17.72191138 45.39677054 -17.72624744 46.73763165 -17.73100281 48.07849121 C-17.73843473 50.87910983 -17.73819534 53.6796023 -17.73291016 56.48022461 C-17.72711137 60.05441295 -17.7440705 63.62808376 -17.76725483 67.20218658 C-17.78204229 69.96814957 -17.78285724 72.73398922 -17.7797451 75.49998474 C-17.78050215 77.45358566 -17.79432817 79.40716757 -17.8084259 81.36071777 C-17.77506024 87.77879263 -17.56889089 92.62815111 -14.41723633 98.2746582 C-13.8700293 99.31879883 -13.8700293 99.31879883 -13.31176758 100.3840332 C-12.95469727 100.92543945 -12.59762695 101.4668457 -12.22973633 102.0246582 C-11.88555664 102.57637695 -11.54137695 103.1280957 -11.18676758 103.6965332 C-4.42066508 109.73076148 5.06414656 108.73169046 13.52026367 108.70825195 C14.96940351 108.71282138 16.41854119 108.71812921 17.86767578 108.72413635 C20.89356331 108.7330336 23.91918641 108.73068266 26.94506836 108.72070312 C30.80512879 108.70920698 34.66427523 108.72945097 38.5242157 108.75862026 C41.51328232 108.77704408 44.50213225 108.7766778 47.49124146 108.77098274 C48.91367883 108.77083034 50.33613165 108.77680729 51.7585144 108.78927422 C59.75065621 108.84947749 65.81697374 108.7620928 72.58276367 104.2746582 C74.70238661 101.97028412 74.70238661 101.97028412 76.02026367 99.3371582 C76.49334961 98.50313477 76.96643555 97.66911133 77.45385742 96.80981445 C79.35355751 92.54370595 79.70896611 88.49882536 79.72802734 83.86450195 C79.7344072 82.80569824 79.74078705 81.74689453 79.74736023 80.65600586 C79.74847305 79.51953613 79.74958588 78.38306641 79.75073242 77.2121582 C79.75406082 76.02928223 79.75738922 74.84640625 79.76081848 73.62768555 C79.76587895 71.12280668 79.76822708 68.61792108 79.76806641 66.11303711 C79.7702397 62.31653411 79.78836858 58.52032806 79.80737305 54.72387695 C79.81030993 52.28247169 79.81229275 49.84106505 79.81323242 47.3996582 C79.8240107 45.71924438 79.8240107 45.71924438 79.83500671 44.00488281 C80.20114139 29.66463901 80.20114139 29.66463901 74.52026367 17.1496582 C67.67125207 10.68579884 57.82841488 10.84992743 49.02416992 10.9465332 C47.24767311 10.94934296 47.24767311 10.94934296 45.43528748 10.95220947 C42.94169277 10.95890344 40.44810809 10.97276463 37.95458984 10.9934082 C34.16062518 11.02453218 30.36707775 11.03438376 26.57299805 11.0402832 C24.14005033 11.04945639 21.7071068 11.05983316 19.27416992 11.0715332 C18.1509584 11.07578308 17.02774689 11.08003296 15.87049866 11.08441162 C1.21409419 10.81823392 1.21409419 10.81823392 -11.41723633 17.2746582 Z " fill="#9B41C3" transform="translate(27.417236328125,1.725341796875)"/>
<path d="M0 0 C2.75390625 1.2578125 2.75390625 1.2578125 5.5625 3.125 C6.66722656 3.84429687 7.77195312 4.56359375 8.91015625 5.3046875 C9.53937988 5.72202148 10.16860352 6.13935547 10.81689453 6.56933594 C13.37784203 8.24761287 15.96614631 9.87862391 18.55859375 11.5078125 C20.53922826 12.75494512 22.51969634 14.0023421 24.5 15.25 C25.45592041 15.85215332 26.41184082 16.45430664 27.39672852 17.07470703 C39.32793759 24.65587518 39.32793759 24.65587518 41 28 C41.375 30.8125 41.375 30.8125 41 34 C37.56445167 37.94002475 33.6119859 40.80866803 29.25 43.625 C28.28622437 44.25643921 28.28622437 44.25643921 27.30297852 44.90063477 C25.92727655 45.80031643 24.54969598 46.69713098 23.17041016 47.59130859 C20.9246468 49.04890753 18.686593 50.51784322 16.44921875 51.98828125 C14.9456541 52.97187654 13.44175529 53.95496126 11.9375 54.9375 C10.8851416 55.62803467 10.8851416 55.62803467 9.81152344 56.33251953 C-0.79301593 63.21299719 -0.79301593 63.21299719 -5.1875 62.4375 C-8.23412854 60.8803343 -9.25571637 59.89043573 -11 57 C-11.3742218 54.57177734 -11.3742218 54.57177734 -11.37231445 51.8359375 C-11.37854324 50.80807129 -11.38477203 49.78020508 -11.39118958 48.72119141 C-11.38197983 47.61694824 -11.37277008 46.51270508 -11.36328125 45.375 C-11.36377975 44.23595215 -11.36427826 43.0969043 -11.36479187 41.92333984 C-11.36245216 39.51593277 -11.35272977 37.10852321 -11.33618164 34.70117188 C-11.31259022 31.01410063 -11.31562171 27.32775253 -11.32226562 23.640625 C-11.31668879 21.30207902 -11.30957888 18.96353608 -11.30078125 16.625 C-11.30169266 15.52075684 -11.30260406 14.41651367 -11.30354309 13.27880859 C-11.29401108 12.25094238 -11.28447906 11.22307617 -11.2746582 10.1640625 C-11.27005081 9.26123535 -11.26544342 8.3584082 -11.26069641 7.42822266 C-10.98097882 4.82282967 -10.40258297 3.2026211 -9 1 C-5.92692932 -0.53653534 -3.39596329 -0.23518738 0 0 Z " fill="#000000" transform="translate(49,31)"/>
<path d="M0 0 C0.33 0 0.66 0 1 0 C1.495 2.97 1.495 2.97 2 6 C2.61875 5.814375 3.2375 5.62875 3.875 5.4375 C6 5 6 5 8 6 C8.97303533 8.83205323 9.14774693 11.52439678 9.20874023 14.50219727 C9.22803085 15.38734512 9.24732147 16.27249298 9.26719666 17.1844635 C9.32544977 21.23987244 9.37424999 25.2951129 9.4050293 29.35083008 C9.4265514 31.47957642 9.46058485 33.60823566 9.50756836 35.73657227 C10.02368712 59.36232169 10.02368712 59.36232169 1.52539062 68.60351562 C-4.67455648 74.25713895 -11.37627125 77.1319109 -19.68652344 77.11352539 C-20.82740417 77.11344986 -21.96828491 77.11337433 -23.14373779 77.11329651 C-24.36989807 77.10813522 -25.59605835 77.10297394 -26.859375 77.09765625 C-28.74864716 77.09553383 -28.74864716 77.09553383 -30.67608643 77.09336853 C-34.01665119 77.08872073 -37.35714721 77.07974281 -40.69769287 77.06866455 C-44.1096538 77.05841598 -47.52162185 77.05386354 -50.93359375 77.04882812 C-57.6224148 77.03779963 -64.31120343 77.02106189 -71 77 C-71 76.34 -71 75.68 -71 75 C-72.05058594 75.04640625 -73.10117188 75.0928125 -74.18359375 75.140625 C-90.29897248 75.64141246 -90.29897248 75.64141246 -96 71 C-96.8125 68.375 -96.8125 68.375 -97 66 C-98.96758273 64.63979849 -98.96758273 64.63979849 -101 64 C-100.67 63.01 -100.34 62.02 -100 61 C-98.35 61 -96.7 61 -95 61 C-95 61.66 -95 62.32 -95 63 C-94.071875 63.28875 -93.14375 63.5775 -92.1875 63.875 C-89 65 -89 65 -86 67 C-84.12563391 66.64265423 -84.12563391 66.64265423 -82 66 C-79.8931551 65.90000672 -77.78349788 65.85443384 -75.67431641 65.84228516 C-74.3926358 65.83202301 -73.1109552 65.82176086 -71.79043579 65.81118774 C-71.10809498 65.80774982 -70.42575417 65.8043119 -69.72273636 65.80076981 C-67.57836078 65.78893444 -65.43418242 65.76947028 -63.28988647 65.74765015 C-57.19462687 65.68618802 -51.09938957 65.63202256 -45.00390625 65.59863281 C-41.27085997 65.57763715 -37.53817756 65.5422981 -33.80533981 65.49787521 C-32.38688831 65.48375698 -30.96837248 65.47500223 -29.54985428 65.47182083 C-27.56131436 65.46688852 -25.57285422 65.4420791 -23.58447266 65.41650391 C-22.45514313 65.40841705 -21.3258136 65.4003302 -20.16226196 65.39199829 C-16.57669864 64.94752699 -14.15370657 63.7131066 -11 62 C-10.34 62 -9.68 62 -9 62 C-8.731875 61.46375 -8.46375 60.9275 -8.1875 60.375 C-7.29574572 58.59149144 -6.37391916 56.82296802 -5.4375 55.0625 C-2.81379612 49.47287 -2.80618217 44.04861408 -2.68359375 37.98046875 C-2.6524221 36.69261223 -2.6524221 36.69261223 -2.62062073 35.3787384 C-2.55547477 32.64840346 -2.49640346 29.91797605 -2.4375 27.1875 C-2.3942815 25.33137082 -2.35066616 23.47525084 -2.30664062 21.61914062 C-2.19982939 17.07952075 -2.09846435 12.53980828 -2 8 C-1.67 8 -1.34 8 -1 8 C-0.67 5.36 -0.34 2.72 0 0 Z " fill="#2185F6" transform="translate(109,44)"/>
<path d="M0 0 C6.11976497 -0.07447293 12.23926278 -0.12875469 18.359375 -0.16479492 C20.43884887 -0.17982843 22.51829131 -0.20026074 24.59765625 -0.22631836 C27.59643334 -0.26294136 30.59478911 -0.27978111 33.59375 -0.29296875 C34.51490601 -0.30845261 35.43606201 -0.32393646 36.38513184 -0.33988953 C45.18000916 -0.34215334 51.67127796 1.90215459 58.171875 7.98046875 C66.72578312 17.42997836 66.15240506 27.9250585 66.0625 40 C66.05798828 41.15628906 66.05347656 42.31257813 66.04882812 43.50390625 C66.03712529 46.33599225 66.02072996 49.16796811 66 52 C65.67 52 65.34 52 65 52 C64.67 59.92 64.34 67.84 64 76 C63.67 76 63.34 76 63 76 C63 66.43 63 56.86 63 47 C61.35 47.66 59.7 48.32 58 49 C57.67 52.96 57.34 56.92 57 61 C56.67 61 56.34 61 56 61 C55.93941406 60.24074219 55.87882812 59.48148438 55.81640625 58.69921875 C55.73261719 57.70535156 55.64882812 56.71148437 55.5625 55.6875 C55.44068359 54.20830078 55.44068359 54.20830078 55.31640625 52.69921875 C55.08187441 49.90624401 55.08187441 49.90624401 54 47 C53.98001692 45.04165781 54.00745548 43.08267045 54.0625 41.125 C54.48910138 28.46387503 54.48910138 28.46387503 49.4375 17.375 C41.19199235 11.15930481 31.73189891 11.58028644 21.82421875 11.671875 C20.36693009 11.67493892 18.90963849 11.67681022 17.4523468 11.67755127 C14.41562486 11.68212768 11.37917206 11.69645541 8.3425293 11.71875 C4.45438431 11.74715673 0.56644921 11.7579774 -3.32178974 11.7624321 C-7.04398039 11.76758774 -10.76611864 11.78212001 -14.48828125 11.796875 C-15.19479639 11.79875572 -15.90131153 11.80063644 -16.62923622 11.80257416 C-18.62955786 11.80945959 -20.62984876 11.82399297 -22.63012695 11.83886719 C-24.33480888 11.84910919 -24.33480888 11.84910919 -26.07392883 11.85955811 C-28.56236425 11.97899491 -30.62973712 12.27506501 -33 13 C-30.76500161 10.42975185 -29.33259251 9.59622649 -26 9 C-23.70859453 8.88448502 -21.41425069 8.82356071 -19.12011719 8.79467773 C-18.43678314 8.78477814 -17.7534491 8.77487854 -17.04940796 8.76467896 C-14.79859846 8.73317956 -12.54776789 8.70835248 -10.296875 8.68359375 C-8.73316917 8.66301423 -7.16946878 8.64201749 -5.60577393 8.62062073 C-1.49589449 8.56550314 2.61403428 8.51604852 6.72399902 8.46777344 C10.92021054 8.41748298 15.11635065 8.36183634 19.3125 8.30664062 C27.54160624 8.19918525 35.77077233 8.09771241 44 8 C44.33 7.01 44.66 6.02 45 5 C44.01 4.67 43.02 4.34 42 4 C42 3.34 42 2.68 42 2 C40.57119507 2.00785522 40.57119507 2.00785522 39.11352539 2.01586914 C35.54078124 2.03412605 31.96804112 2.04550678 28.39526367 2.05493164 C26.85619409 2.05992496 25.31712916 2.06672194 23.77807617 2.07543945 C15.79274406 2.11950003 7.92367363 2.14483112 0 1 C0 0.67 0 0.34 0 0 Z " fill="#6754F2" transform="translate(52,2)"/>
<path d="M0 0 C1.23105469 -0.00128906 2.46210937 -0.00257812 3.73046875 -0.00390625 C5.01824219 -0.00003906 6.30601563 0.00382813 7.6328125 0.0078125 C8.91285156 0.00394531 10.19289062 0.00007812 11.51171875 -0.00390625 C12.74535156 -0.00261719 13.97898438 -0.00132813 15.25 0 C16.94165283 0.00169189 16.94165283 0.00169189 18.66748047 0.00341797 C21.48330694 0.12131875 24.01989432 0.48968593 26.7578125 1.1328125 C25.7578125 4.1328125 25.7578125 4.1328125 22.7578125 6.1328125 C19.98632813 6.52758789 19.98632813 6.52758789 16.6640625 6.73046875 C15.46910156 6.80974609 14.27414063 6.88902344 13.04296875 6.97070312 C11.79386719 7.04482422 10.54476562 7.11894531 9.2578125 7.1953125 C6.7888478 7.34946355 4.32008311 7.5068625 1.8515625 7.66796875 C0.75521484 7.7337915 -0.34113281 7.79961426 -1.47070312 7.86743164 C-4.32661955 8.03631136 -4.32661955 8.03631136 -7.2421875 9.1328125 C-3.6121875 9.1328125 0.0178125 9.1328125 3.7578125 9.1328125 C3.7578125 9.4628125 3.7578125 9.7928125 3.7578125 10.1328125 C3.12875 10.14699219 2.4996875 10.16117188 1.8515625 10.17578125 C-6.29337664 10.62964081 -11.62122585 13.25400857 -17.2421875 19.1328125 C-16.62941138 16.17106127 -15.98846228 14.75222467 -14.2421875 12.1328125 C-15.44875 13.525 -15.44875 13.525 -16.6796875 14.9453125 C-17.13214844 15.46738281 -17.58460937 15.98945313 -18.05078125 16.52734375 C-20.67087214 20.0580236 -20.43352205 23.7537109 -20.55859375 27.98828125 C-20.57937485 28.64991776 -20.60015594 29.31155426 -20.62156677 29.99324036 C-20.68683477 32.10216102 -20.74584094 34.21120385 -20.8046875 36.3203125 C-20.84789439 37.75196565 -20.89150938 39.18360654 -20.93554688 40.61523438 C-21.04249256 44.12096404 -21.14382391 47.62683036 -21.2421875 51.1328125 C-21.7371875 49.6478125 -21.7371875 49.6478125 -22.2421875 48.1328125 C-22.9021875 47.8028125 -23.5621875 47.4728125 -24.2421875 47.1328125 C-24.5721875 46.8028125 -24.9021875 46.4728125 -25.2421875 46.1328125 C-25.9021875 47.4528125 -26.5621875 48.7728125 -27.2421875 50.1328125 C-28.55771854 44.34737588 -28.46495987 38.66620727 -28.4921875 32.7578125 C-28.5128125 31.64664063 -28.5334375 30.53546875 -28.5546875 29.390625 C-28.59189705 21.57661922 -27.6606831 16.84117241 -23.3671875 10.2578125 C-20.96243883 7.85306383 -19.5826361 7.41118322 -16.2421875 7.1328125 C-15.9121875 6.1428125 -15.5821875 5.1528125 -15.2421875 4.1328125 C-13.5921875 4.1328125 -11.9421875 4.1328125 -10.2421875 4.1328125 C-9.9121875 3.1428125 -9.5821875 2.1528125 -9.2421875 1.1328125 C-5.94127771 0.03250924 -3.47468125 0.00348214 0 0 Z " fill="#C74EF4" transform="translate(30.2421875,3.8671875)"/>
<path d="M0 0 C0.33 0 0.66 0 1 0 C1.495 2.97 1.495 2.97 2 6 C3.32 5.67 4.64 5.34 6 5 C6.07617191 12.1532508 6.12865121 19.30639667 6.16479492 26.45996094 C6.17986534 28.89261789 6.20032523 31.32524774 6.22631836 33.7578125 C6.2627774 37.25788061 6.2797442 40.7575889 6.29296875 44.2578125 C6.30845261 45.34240753 6.32393646 46.42700256 6.33988953 47.54446411 C6.34114816 53.21353718 6.13645165 57.20307395 3 62 C2.34 62 1.68 62 1 62 C0.9175 62.5775 0.835 63.155 0.75 63.75 C-0.80175138 68.40525414 -4.80408546 70.82815961 -8.94921875 73.15332031 C-12.63192702 74.67375273 -16.25989024 74.49804136 -20.1875 74.375 C-20.98091797 74.37371094 -21.77433594 74.37242188 -22.59179688 74.37109375 C-26.50909034 74.31189032 -29.64332338 74.26191147 -33 72 C-29.535 71.01 -29.535 71.01 -26 70 C-26.66 69.34 -27.32 68.68 -28 68 C-27.2265625 67.97421875 -26.453125 67.9484375 -25.65625 67.921875 C-16.17141034 67.41516657 -16.17141034 67.41516657 -8 63 C-3.60444686 57.68109215 -0.91515499 52.94825284 -0.79467773 45.9777832 C-0.77473251 44.95695145 -0.75478729 43.93611969 -0.73423767 42.88435364 C-0.71752518 41.78427475 -0.70081268 40.68419586 -0.68359375 39.55078125 C-0.66281265 38.4230278 -0.64203156 37.29527435 -0.62062073 36.13334656 C-0.55517153 32.5264604 -0.49626156 28.91950071 -0.4375 25.3125 C-0.39431039 22.86913298 -0.35069596 20.42577344 -0.30664062 17.98242188 C-0.19949484 11.98835926 -0.09771971 5.99422329 0 0 Z " fill="#1F86F6" transform="translate(109,44)"/>
<path d="M0 0 C0.33 0 0.66 0 1 0 C1.66 20.46 2.32 40.92 3 62 C3.66 62 4.32 62 5 62 C5.33 62.66 5.66 63.32 6 64 C8.79177569 61.20822431 8.31213484 59.36816428 8.4140625 55.4609375 C8.45273438 54.15898438 8.49140625 52.85703125 8.53125 51.515625 C8.56270763 50.13542138 8.59395491 48.75521296 8.625 47.375 C8.66317934 45.98695459 8.70223105 44.59893289 8.7421875 43.2109375 C8.83672943 39.80742815 8.92227897 36.40392835 9 33 C9.33 33 9.66 33 10 33 C10.01458252 33.66008057 10.02916504 34.32016113 10.04418945 35.00024414 C10.11914612 38.02155397 10.21564806 41.04181595 10.3125 44.0625 C10.33505859 45.10083984 10.35761719 46.13917969 10.38085938 47.20898438 C10.59098941 53.22634444 11.1824902 57.66156038 14 63 C14.53625 64.051875 15.0725 65.10375 15.625 66.1875 C20.26608715 71.68352426 26.0757138 73.0927379 33.0625 73.75 C34.7074482 73.84928357 36.35320861 73.9384377 38 74 C38 74.33 38 74.66 38 75 C28.81639833 75.54448231 21.62553301 75.78631231 14 70 C14 69.34 14 68.68 14 68 C11.525 68.495 11.525 68.495 9 69 C9.7339519 71.97747288 9.7339519 71.97747288 11.5625 73.5 C13 75 13 75 13 78 C21.25279772 81.38954192 29.19573542 81.68671942 38 82 C38 82.66 38 83.32 38 84 C24.75642986 84.54738063 16.26225991 84.01248009 5.82421875 75.171875 C-0.76622713 67.32543408 -0.5407742 59.83982707 -0.390625 50 C-0.38315242 48.55412585 -0.3774643 47.10824147 -0.37347412 45.66235352 C-0.35829741 41.88099558 -0.31908655 38.1002651 -0.2746582 34.31915283 C-0.23353183 30.45113611 -0.21542629 26.58301671 -0.1953125 22.71484375 C-0.15258265 15.14294501 -0.08443052 7.57156086 0 0 Z " fill="#5856E6" transform="translate(0,37)"/>
<path d="M0 0 C3.47263143 0.56373887 4.91317065 1.60850967 7.125 4.3125 C7.87136719 5.20388672 7.87136719 5.20388672 8.6328125 6.11328125 C10.00183084 8.00252656 11.02026781 9.8865777 12 12 C12.99 11.34 13.98 10.68 15 10 C15.66 10.66 16.32 11.32 17 12 C16.855625 11.278125 16.71125 10.55625 16.5625 9.8125 C16.04166667 7.20833333 15.52083333 4.60416667 15 2 C16.92236328 2.69995117 16.92236328 2.69995117 19 4 C21.87775297 11.46902274 21.2448446 20.31924097 21.125 28.1875 C21.11597656 29.33025391 21.10695313 30.47300781 21.09765625 31.65039062 C21.07436393 34.4338231 21.04165999 37.21679229 21 40 C20.67 40 20.34 40 20 40 C19.67 47.92 19.34 55.84 19 64 C18.67 64 18.34 64 18 64 C18 54.43 18 44.86 18 35 C16.35 35.66 14.7 36.32 13 37 C12.67 40.96 12.34 44.92 12 49 C11.67 49 11.34 49 11 49 C10.93941406 48.24074219 10.87882812 47.48148438 10.81640625 46.69921875 C10.73261719 45.70535156 10.64882812 44.71148437 10.5625 43.6875 C10.44068359 42.20830078 10.44068359 42.20830078 10.31640625 40.69921875 C10.08187441 37.90624401 10.08187441 37.90624401 9 35 C8.97991509 33.08332534 9.00768917 31.16599606 9.0625 29.25 C9.6128371 16.36485059 9.6128371 16.36485059 5.30859375 4.75390625 C3.22321865 2.92125669 3.22321865 2.92125669 0 1 C0 0.67 0 0.34 0 0 Z " fill="#4A61F5" transform="translate(97,14)"/>
<path d="M0 0 C2.75390625 1.2578125 2.75390625 1.2578125 5.5625 3.125 C6.66722656 3.84429687 7.77195312 4.56359375 8.91015625 5.3046875 C9.53937988 5.72202148 10.16860352 6.13935547 10.81689453 6.56933594 C13.37784203 8.24761287 15.96614631 9.87862391 18.55859375 11.5078125 C20.53922826 12.75494512 22.51969634 14.0023421 24.5 15.25 C25.45592041 15.85215332 26.41184082 16.45430664 27.39672852 17.07470703 C39.32793759 24.65587518 39.32793759 24.65587518 41 28 C41.375 30.8125 41.375 30.8125 41 34 C37.56445167 37.94002475 33.6119859 40.80866803 29.25 43.625 C28.28622437 44.25643921 28.28622437 44.25643921 27.30297852 44.90063477 C25.92727655 45.80031643 24.54969598 46.69713098 23.17041016 47.59130859 C20.9246468 49.04890753 18.686593 50.51784322 16.44921875 51.98828125 C14.9456541 52.97187654 13.44175529 53.95496126 11.9375 54.9375 C10.8851416 55.62803467 10.8851416 55.62803467 9.81152344 56.33251953 C-0.79301593 63.21299719 -0.79301593 63.21299719 -5.1875 62.4375 C-8.23412854 60.8803343 -9.25571637 59.89043573 -11 57 C-11.3742218 54.57177734 -11.3742218 54.57177734 -11.37231445 51.8359375 C-11.37854324 50.80807129 -11.38477203 49.78020508 -11.39118958 48.72119141 C-11.38197983 47.61694824 -11.37277008 46.51270508 -11.36328125 45.375 C-11.36377975 44.23595215 -11.36427826 43.0969043 -11.36479187 41.92333984 C-11.36245216 39.51593277 -11.35272977 37.10852321 -11.33618164 34.70117188 C-11.31259022 31.01410063 -11.31562171 27.32775253 -11.32226562 23.640625 C-11.31668879 21.30207902 -11.30957888 18.96353608 -11.30078125 16.625 C-11.30169266 15.52075684 -11.30260406 14.41651367 -11.30354309 13.27880859 C-11.29401108 12.25094238 -11.28447906 11.22307617 -11.2746582 10.1640625 C-11.27005081 9.26123535 -11.26544342 8.3584082 -11.26069641 7.42822266 C-10.98097882 4.82282967 -10.40258297 3.2026211 -9 1 C-5.92692932 -0.53653534 -3.39596329 -0.23518738 0 0 Z M-7 2 C-9.18679115 5.28018673 -9.25534676 6.26034189 -9.2746582 10.06640625 C-9.28419022 11.09757568 -9.29372223 12.12874512 -9.30354309 13.19116211 C-9.30263168 14.30370361 -9.30172028 15.41624512 -9.30078125 16.5625 C-9.30506638 17.70533447 -9.3093515 18.84816895 -9.31376648 20.02563477 C-9.31951244 22.44318987 -9.3200081 24.86076227 -9.31567383 27.27832031 C-9.31251252 30.98532449 -9.33597545 34.69153197 -9.36132812 38.3984375 C-9.36360087 40.74479066 -9.36430473 43.09114597 -9.36328125 45.4375 C-9.372491 46.5500415 -9.38170074 47.66258301 -9.39118958 48.80883789 C-9.38496078 49.84000732 -9.37873199 50.87117676 -9.37231445 51.93359375 C-9.37294388 52.84165771 -9.3735733 53.74972168 -9.3742218 54.68530273 C-8.92518841 57.46273677 -8.23670023 58.34054294 -6 60 C-0.73792131 61.07758562 2.46310127 58.84517692 6.7253418 56.08813477 C7.537854 55.54342529 8.35036621 54.99871582 9.1875 54.4375 C10.03030518 53.88827881 10.87311035 53.33905762 11.74145508 52.77319336 C13.41314546 51.68321202 15.08146652 50.58804274 16.74609375 49.48730469 C19.53893306 47.64436956 22.3590094 45.85016962 25.1875 44.0625 C26.01507813 43.53269531 26.84265625 43.00289062 27.6953125 42.45703125 C29.24204202 41.47918361 30.79965544 40.51835935 32.3671875 39.57421875 C33.09164062 39.13722656 33.81609375 38.70023438 34.5625 38.25 C35.18253906 37.88390625 35.80257812 37.5178125 36.44140625 37.140625 C38.3063802 35.91294366 38.3063802 35.91294366 40 33 C39.8372534 29.92208524 39.4382265 28.46186501 37.30273438 26.21118164 C36.20928711 25.41248657 36.20928711 25.41248657 35.09375 24.59765625 C33.87171875 23.70457764 33.87171875 23.70457764 32.625 22.79345703 C28.33505086 19.86247057 23.94796594 17.12117086 19.5 14.4375 C17.71779796 13.35442962 15.93653921 12.26980545 14.15625 11.18359375 C13.29652588 10.66063721 12.43680176 10.13768066 11.55102539 9.59887695 C8.2864389 7.55276948 5.12763837 5.36799223 1.98413086 3.14111328 C-1.10869043 1.36237 -3.55439865 1.36713445 -7 2 Z " fill="#D9D9D9" transform="translate(49,31)"/>
<path d="M0 0 C1.68275163 2.9514451 2.26259288 5.11513076 2.32226562 8.50219727 C2.34148071 9.38734512 2.3606958 10.27249298 2.38049316 11.1844635 C2.38899292 12.13550461 2.39749268 13.08654572 2.40625 14.06640625 C2.41765015 15.05567612 2.42905029 16.04494598 2.4407959 17.06419373 C2.45968089 19.15969581 2.47275794 21.25525709 2.48046875 23.35083008 C2.49978587 26.52728968 2.56179415 29.7011062 2.625 32.87695312 C2.74682938 44.57297801 2.81144871 53.59188689 -5.47436523 62.60351562 C-11.67495782 68.25678409 -18.37586972 71.13191179 -26.68652344 71.11352539 C-27.82740417 71.11344986 -28.96828491 71.11337433 -30.14373779 71.11329651 C-31.36989807 71.10813522 -32.59605835 71.10297394 -33.859375 71.09765625 C-35.74864716 71.09553383 -35.74864716 71.09553383 -37.67608643 71.09336853 C-41.01665119 71.08872073 -44.35714721 71.07974281 -47.69769287 71.06866455 C-51.1096538 71.05841598 -54.52162185 71.05386354 -57.93359375 71.04882812 C-64.6224148 71.03779963 -71.31120343 71.02106189 -78 71 C-78 70.34 -78 69.68 -78 69 C-77.31397202 68.99413376 -76.62794403 68.98826752 -75.92112732 68.98222351 C-68.76672939 68.91818078 -61.61277674 68.83373239 -54.45874023 68.73754883 C-51.79040589 68.702711 -49.1223661 68.67629674 -46.45385742 68.65356445 C-42.61346857 68.61994585 -38.77371498 68.56762359 -34.93359375 68.51171875 C-33.74479111 68.50532883 -32.55598846 68.4989389 -31.3311615 68.49235535 C-22.25389666 68.33202029 -16.31661329 66.65374663 -9 61 C-7.30117552 58.50240018 -7.30117552 58.50240018 -6 56 C-5 55 -4 54 -3 53 C-2.03951315 50.11853945 -1.81647925 48.07615093 -1.70288086 45.06958008 C-1.66291489 44.06876907 -1.62294891 43.06795807 -1.58177185 42.03681946 C-1.52389244 40.4195118 -1.52389244 40.4195118 -1.46484375 38.76953125 C-1.42186661 37.66397385 -1.37888947 36.55841644 -1.33460999 35.4193573 C-1.19812171 31.88388176 -1.06774156 28.34821064 -0.9375 24.8125 C-0.84610494 22.41730234 -0.75431306 20.02211979 -0.66210938 17.62695312 C-0.43679922 11.7514697 -0.21650525 5.87581411 0 0 Z " fill="#2373D0" transform="translate(116,50)"/>
<path d="M0 0 C13.86 0 27.72 0 42 0 C42 0.66 42 1.32 42 2 C43.32 2.33 44.64 2.66 46 3 C45.34 4.32 44.68 5.64 44 7 C24.86 7 5.72 7 -14 7 C-14 6.67 -14 6.34 -14 6 C-12.96359375 5.97421875 -11.9271875 5.9484375 -10.859375 5.921875 C-9.48954199 5.86558049 -8.11975195 5.80823345 -6.75 5.75 C-6.06808594 5.73582031 -5.38617188 5.72164062 -4.68359375 5.70703125 C-1.12887794 5.53447223 0.70213559 5.2454103 3.484375 2.953125 C3.98453125 2.30859375 4.4846875 1.6640625 5 1 C3.35 1 1.7 1 0 1 C0 0.67 0 0.34 0 0 Z " fill="#8252F6" transform="translate(52,4)"/>
<path d="M0 0 C0.33 0 0.66 0 1 0 C1.92729287 8.30709039 2.278186 16.5980079 2.35009766 24.95239258 C2.36672232 26.36108852 2.39409802 27.76969791 2.43212891 29.17797852 C2.66669759 37.9722644 2.48547919 45.6962596 -3 53 C-8.07103175 57.71334605 -12.19093129 60.12343209 -19.21484375 60.12939453 C-20.81295898 60.13412277 -20.81295898 60.13412277 -22.44335938 60.13894653 C-23.59642578 60.1369223 -24.74949219 60.13489807 -25.9375 60.1328125 C-27.72317383 60.13424759 -27.72317383 60.13424759 -29.54492188 60.13571167 C-32.07015028 60.13639303 -34.59538042 60.13454184 -37.12060547 60.13037109 C-40.95674671 60.12505988 -44.79276884 60.13029802 -48.62890625 60.13671875 C-51.08593776 60.13605722 -53.54296919 60.13477452 -56 60.1328125 C-57.13687256 60.13483673 -58.27374512 60.13686096 -59.44506836 60.13894653 C-66.35014393 60.1189893 -73.1356919 59.75390032 -80 59 C-80 58.67 -80 58.34 -80 58 C-79.19899872 57.99413376 -78.39799744 57.98826752 -77.57272339 57.98222351 C-70.01028587 57.92423028 -62.44817533 57.852116 -54.8860302 57.76428509 C-50.99858564 57.71962835 -47.11124475 57.68036217 -43.22363281 57.65356445 C-39.46923713 57.62748417 -35.71524134 57.58704914 -31.9610939 57.53681374 C-30.53148512 57.52017679 -29.10180722 57.50864277 -27.67211533 57.50238609 C-25.66394765 57.49271133 -23.65590777 57.46292573 -21.64794922 57.43237305 C-20.50655487 57.42126999 -19.36516052 57.41016693 -18.18917847 57.39872742 C-14.59181158 56.94896619 -12.16387665 55.71998933 -9 54 C-8.34 54 -7.68 54 -7 54 C-6.731875 53.46375 -6.46375 52.9275 -6.1875 52.375 C-5.29574572 50.59149144 -4.37391916 48.82296802 -3.4375 47.0625 C-0.81379612 41.47287 -0.80618217 36.04861408 -0.68359375 29.98046875 C-0.6524221 28.69261223 -0.6524221 28.69261223 -0.62062073 27.3787384 C-0.55547477 24.64840346 -0.49640346 21.91797605 -0.4375 19.1875 C-0.3942815 17.33137082 -0.35066616 15.47525084 -0.30664062 13.61914062 C-0.19982939 9.07952075 -0.09846435 4.53980828 0 0 Z " fill="#2570CC" transform="translate(107,52)"/>
<path d="M0 0 C3 2 3 2 3.50292969 3.89282227 C4.02872736 11.24107271 4.21809243 18.5708391 4.25 25.9375 C4.270625 27.15501953 4.29125 28.37253906 4.3125 29.62695312 C4.32023438 31.37202148 4.32023438 31.37202148 4.328125 33.15234375 C4.3374707 34.20413818 4.34681641 35.25593262 4.35644531 36.33959961 C3.95648535 39.32478026 3.34927838 40.19849891 1 42 C0.505 40.515 0.505 40.515 0 39 C-0.66 39 -1.32 39 -2 39 C-3.77670009 33.66989972 -3.22559948 27.90413581 -3.24023438 22.3215332 C-3.24995026 20.07400648 -3.28098987 17.82739074 -3.3125 15.58007812 C-3.3190296 14.14844292 -3.32428024 12.71680119 -3.328125 11.28515625 C-3.3374707 9.98457275 -3.34681641 8.68398926 -3.35644531 7.34399414 C-2.98478143 3.85722688 -2.38860573 2.49384628 0 0 Z " fill="#7851F5" transform="translate(5,60)"/>
<path d="M0 0 C2.125 0.9375 2.125 0.9375 4 2 C3.67 3.98 3.34 5.96 3 8 C2.34 8 1.68 8 1 8 C0.9175 8.5775 0.835 9.155 0.75 9.75 C-0.80175138 14.40525414 -4.80408546 16.82815961 -8.94921875 19.15332031 C-12.63192702 20.67375273 -16.25989024 20.49804136 -20.1875 20.375 C-20.98091797 20.37371094 -21.77433594 20.37242188 -22.59179688 20.37109375 C-26.50909034 20.31189032 -29.64332338 20.26191147 -33 18 C-30.69 17.34 -28.38 16.68 -26 16 C-26.66 15.34 -27.32 14.68 -28 14 C-26.83984375 13.96132812 -26.83984375 13.96132812 -25.65625 13.921875 C-19.11231588 13.56552215 -13.28139392 13.1732443 -8 9 C-6.24154599 6.98248804 -4.70683918 4.93571598 -3.2265625 2.70703125 C-2 1 -2 1 0 0 Z " fill="#198DF7" transform="translate(109,98)"/>
<path d="M0 0 C1.65 0 3.3 0 5 0 C5 0.66 5 1.32 5 2 C5.928125 2.28875 6.85625 2.5775 7.8125 2.875 C11 4 11 4 14 6 C16.58885171 6.29991069 19.09149082 6.50865225 21.6875 6.625 C22.7403418 6.68300781 22.7403418 6.68300781 23.81445312 6.7421875 C25.54254655 6.8362334 27.27123675 6.9191968 29 7 C29 7.99 29 8.98 29 10 C32.63 10 36.26 10 40 10 C35.78370866 12.10814567 33.60209225 12.17700355 29 12 C29 12.66 29 13.32 29 14 C9.94692703 14.84160813 9.94692703 14.84160813 4 10 C3.1875 7.375 3.1875 7.375 3 5 C1.03241727 3.63979849 1.03241727 3.63979849 -1 3 C-0.67 2.01 -0.34 1.02 0 0 Z " fill="#4B5DF3" transform="translate(9,105)"/>
<path d="M0 0 C0.66 0.33 1.32 0.66 2 1 C1.37536865 1.5563916 0.7507373 2.1127832 0.10717773 2.68603516 C-7.38743873 10.91613304 -5.48674256 26.17047346 -5.5625 36.625 C-5.58631896 39.2344989 -5.61433612 41.84366839 -5.65428162 44.45297241 C-5.67858889 46.06436588 -5.69348792 47.67593533 -5.69789124 49.2875061 C-5.77532846 54.77532846 -5.77532846 54.77532846 -8 57 C-8.1953125 55.01432292 -8.390625 53.02864583 -8.5859375 51.04296875 C-8.92665391 48.70011858 -8.92665391 48.70011858 -11 46 C-11.99 46.99 -12.98 47.98 -14 49 C-14 44.05 -14 39.1 -14 34 C-12.35 34 -10.7 34 -9 34 C-8.67 34.99 -8.34 35.98 -8 37 C-7.9906543 36.21874756 -7.98130859 35.43749512 -7.97167969 34.63256836 C-7.91774688 31.06692236 -7.8341419 27.50255585 -7.75 23.9375 C-7.73582031 22.70837891 -7.72164062 21.47925781 -7.70703125 20.21289062 C-7.48866735 12.1115899 -6.77632385 7.18092998 -1.25 1.0625 C-0.8375 0.711875 -0.425 0.36125 0 0 Z " fill="#A450F5" transform="translate(16,15)"/>
<path d="M0 0 C-1 3 -1 3 -4 5 C-6.32836914 5.3347168 -6.32836914 5.3347168 -9.03515625 5.44921875 C-10.00904297 5.49240234 -10.98292969 5.53558594 -11.98632812 5.58007812 C-13.5090332 5.63325195 -13.5090332 5.63325195 -15.0625 5.6875 C-16.08150391 5.73455078 -17.10050781 5.78160156 -18.15039062 5.83007812 C-25.72726663 6.13636668 -25.72726663 6.13636668 -28 5 C-28 4.34 -28 3.68 -28 3 C-29.32 3 -30.64 3 -32 3 C-31.67 2.01 -31.34 1.02 -31 0 C-30.01 0 -29.02 0 -28 0 C-26.9275 -0.165 -25.855 -0.33 -24.75 -0.5 C-16.77087456 -1.54010946 -7.83999638 -1.88879454 0 0 Z " fill="#B04EF8" transform="translate(57,5)"/>
<path d="M0 0 C1.93704552 -0.00956978 1.93704552 -0.00956978 3.91322327 -0.01933289 C5.31902021 -0.02086126 6.72481765 -0.02197538 8.13061523 -0.02270508 C9.5750278 -0.02591917 11.01944004 -0.02928336 12.46385193 -0.03279114 C15.48746496 -0.03877202 18.51104944 -0.04063199 21.53466797 -0.04003906 C25.41076075 -0.03993724 29.28667119 -0.05361499 33.16272068 -0.07081127 C36.14382267 -0.08192054 39.12488033 -0.08395864 42.1060009 -0.08342934 C43.53535531 -0.08461009 44.96471085 -0.08903721 46.39404488 -0.0967617 C48.39027681 -0.1065439 50.3865623 -0.10242389 52.3828125 -0.09765625 C53.51880386 -0.09908127 54.65479523 -0.10050629 55.82521057 -0.10197449 C58.62670898 0.14526367 58.62670898 0.14526367 61.62670898 2.14526367 C42.69015398 3.06601172 23.80698356 3.23273672 4.85205078 3.1081543 C3.9399736 3.10392456 3.02789642 3.09969482 2.08818054 3.09533691 C0.36558906 3.0871607 -1.35698935 3.07477598 -3.07951355 3.05749512 C-6.68784504 3.04222684 -9.90215054 3.16711669 -13.37329102 4.14526367 C-9.55377165 -0.2471836 -5.59297589 0.01875399 0 0 Z " fill="#7D45C5" transform="translate(32.373291015625,10.854736328125)"/>
<path d="M0 0 C1.70213241 2.97424797 2.25731789 5.13383774 2.29052734 8.54980469 C2.3096669 9.89205109 2.3096669 9.89205109 2.32919312 11.26141357 C2.33253159 12.70209198 2.33253159 12.70209198 2.3359375 14.171875 C2.3425943 15.16825989 2.3492511 16.16464478 2.35610962 17.19122314 C2.36622992 19.29933834 2.37092683 21.40748554 2.37060547 23.515625 C2.37496536 26.72450333 2.4112555 29.93199115 2.44921875 33.140625 C2.45508985 35.19270365 2.45905728 37.24478881 2.4609375 39.296875 C2.47530853 40.24923035 2.48967957 41.20158569 2.50448608 42.18280029 C2.46361828 48.20969755 1.60632553 53.03941928 -2 58 C-3.93216504 59.67096337 -5.73863831 60.76652999 -8 62 C-6.88194029 58.12979331 -5.9704892 55.71218579 -3 53 C-2.03951315 50.11853945 -1.81647925 48.07615093 -1.70288086 45.06958008 C-1.66291489 44.06876907 -1.62294891 43.06795807 -1.58177185 42.03681946 C-1.54318558 40.95861435 -1.5045993 39.88040924 -1.46484375 38.76953125 C-1.42186661 37.66397385 -1.37888947 36.55841644 -1.33460999 35.4193573 C-1.19812171 31.88388176 -1.06774156 28.34821064 -0.9375 24.8125 C-0.84610494 22.41730234 -0.75431306 20.02211979 -0.66210938 17.62695312 C-0.43679922 11.7514697 -0.21650525 5.87581411 0 0 Z " fill="#1E6BC4" transform="translate(116,50)"/>
<path d="M0 0 C0.33 0 0.66 0 1 0 C1.33 1.65 1.66 3.3 2 5 C2.66 5 3.32 5 4 5 C4 5.99 4 6.98 4 8 C4.66 8 5.32 8 6 8 C6.97159933 15.68604474 7.10920422 23.25863399 7 31 C6.67 30.01 6.34 29.02 6 28 C5.34 27.67 4.68 27.34 4 27 C3.67 26.67 3.34 26.34 3 26 C2.34 27.32 1.68 28.64 1 30 C0.1367399 26.28111134 -0.11721556 22.85703512 -0.09765625 19.04296875 C-0.09443359 17.93115234 -0.09121094 16.81933594 -0.08789062 15.67382812 C-0.07951172 14.52333984 -0.07113281 13.37285156 -0.0625 12.1875 C-0.05798828 11.01767578 -0.05347656 9.84785156 -0.04882812 8.64257812 C-0.0370693 5.76166642 -0.02063426 2.88085956 0 0 Z " fill="#B84FF5" transform="translate(2,24)"/>
<path d="M0 0 C1.92236328 0.69995117 1.92236328 0.69995117 4 2 C6.87775297 9.46902274 6.2448446 18.31924097 6.125 26.1875 C6.11597656 27.33025391 6.10695313 28.47300781 6.09765625 29.65039062 C6.07436393 32.4338231 6.04165999 35.21679229 6 38 C5.67 38 5.34 38 5 38 C4.67 45.92 4.34 53.84 4 62 C3.67 62 3.34 62 3 62 C2.99191315 61.32650009 2.98382629 60.65300018 2.97549438 59.95909119 C2.88928171 52.93453435 2.78977076 45.91025428 2.68261719 38.88598633 C2.6443893 36.26624203 2.60952573 33.64644635 2.578125 31.02661133 C2.53234059 27.25583564 2.474367 23.48541178 2.4140625 19.71484375 C2.39673569 17.96445045 2.39673569 17.96445045 2.37905884 16.17869568 C2.27509391 10.41991842 1.95709539 5.43523157 0 0 Z " fill="#3B5ECD" transform="translate(112,16)"/>
<path d="M0 0 C0.33 0 0.66 0 1 0 C1.02061493 0.7213916 1.04122986 1.4427832 1.06246948 2.18603516 C1.25910195 9.01211552 1.46422163 15.83789483 1.67867851 22.66343689 C1.788617 26.17182818 1.89536737 29.68025396 1.99462891 33.18896484 C2.10910744 37.23047915 2.23781649 41.27143478 2.3671875 45.3125 C2.40061249 46.5617627 2.43403748 47.81102539 2.46847534 49.09814453 C2.68077329 55.38143492 3.18502862 60.97724057 5 67 C5.33950287 68.33177576 5.67433016 69.66477416 6 71 C4.5 69.625 4.5 69.625 3 68 C3 67.34 3 66.68 3 66 C2.01 65.67 1.02 65.34 0 65 C0 43.55 0 22.1 0 0 Z " fill="#563097" transform="translate(0,37)"/>
<path d="M0 0 C6.11976497 -0.07447293 12.23926278 -0.12875469 18.359375 -0.16479492 C20.43884887 -0.17982843 22.51829131 -0.20026074 24.59765625 -0.22631836 C27.59643334 -0.26294136 30.59478911 -0.27978111 33.59375 -0.29296875 C34.51490601 -0.30845261 35.43606201 -0.32393646 36.38513184 -0.33988953 C43.63043758 -0.34175448 49.56343805 0.90893681 55.4375 5.4375 C58.76 8.76 58.76 8.76 59 12 C58.01 11.67 57.02 11.34 56 11 C56 10.34 56 9.68 56 9 C55.40517822 8.71294189 54.81035645 8.42588379 54.19750977 8.13012695 C52 7 52 7 48.83984375 4.91796875 C42.08743183 1.54723223 33.94456367 2.35424088 26.5625 2.3125 C23.45952017 2.27381267 20.35673285 2.22509996 17.25390625 2.17578125 C16.52039948 2.16604279 15.7868927 2.15630432 15.03115845 2.14627075 C9.95499056 2.06439591 5.02406425 1.70948324 0 1 C0 0.67 0 0.34 0 0 Z " fill="#6748CB" transform="translate(52,2)"/>
<path d="M0 0 C0 0.99 0 1.98 0 3 C3.63 3 7.26 3 11 3 C6.78370866 5.10814567 4.60209225 5.17700355 0 5 C0 5.66 0 6.32 0 7 C-5.28 7 -10.56 7 -16 7 C-15.34 6.67 -14.68 6.34 -14 6 C-14 4.68 -14 3.36 -14 2 C-14.99 1.67 -15.98 1.34 -17 1 C-15.10440036 0.83069605 -13.20850769 0.66467136 -11.3125 0.5 C-10.25675781 0.4071875 -9.20101563 0.314375 -8.11328125 0.21875 C-5.39363975 0.0276585 -2.72460144 -0.04043935 0 0 Z " fill="#4165F2" transform="translate(38,112)"/>
<path d="M0 0 C3.47263143 0.56373887 4.91317065 1.60850967 7.125 4.3125 C7.87136719 5.20388672 7.87136719 5.20388672 8.6328125 6.11328125 C12.05385381 10.83431825 12.27063639 14.72933578 12.1953125 20.484375 C12.1924826 21.29996887 12.18965271 22.11556274 12.18673706 22.95587158 C12.17556558 25.55406528 12.15046675 28.15191095 12.125 30.75 C12.11496627 32.51431793 12.10584111 34.27864128 12.09765625 36.04296875 C12.07563619 40.36211273 12.04112733 44.68099741 12 49 C11.67 49 11.34 49 11 49 C10.93941406 48.24074219 10.87882812 47.48148438 10.81640625 46.69921875 C10.73261719 45.70535156 10.64882812 44.71148437 10.5625 43.6875 C10.44068359 42.20830078 10.44068359 42.20830078 10.31640625 40.69921875 C10.08187441 37.90624401 10.08187441 37.90624401 9 35 C8.97991509 33.08332534 9.00768917 31.16599606 9.0625 29.25 C9.6128371 16.36485059 9.6128371 16.36485059 5.30859375 4.75390625 C3.22321865 2.92125669 3.22321865 2.92125669 0 1 C0 0.67 0 0.34 0 0 Z " fill="#4651C7" transform="translate(97,14)"/>
<path d="M0 0 C0.33 0 0.66 0 1 0 C1.33 1.98 1.66 3.96 2 6 C3.32 5.67 4.64 5.34 6 5 C6 14.57 6 24.14 6 34 C5.67 34 5.34 34 5 34 C5 29.05 5 24.1 5 19 C4.34 19 3.68 19 3 19 C2.67 18.34 2.34 17.68 2 17 C1.34 18.32 0.68 19.64 0 21 C0 14.07 0 7.14 0 0 Z " fill="#3272F6" transform="translate(109,44)"/>
<path d="M0 0 C1.76923828 0.01353516 1.76923828 0.01353516 3.57421875 0.02734375 C4.47785156 0.03894531 5.38148437 0.05054688 6.3125 0.0625 C6.3125 0.3925 6.3125 0.7225 6.3125 1.0625 C3.6725 1.0625 1.0325 1.0625 -1.6875 1.0625 C-2.0175 1.7225 -2.3475 2.3825 -2.6875 3.0625 C-3.3475 2.7325 -4.0075 2.4025 -4.6875 2.0625 C-5.0175 2.7225 -5.3475 3.3825 -5.6875 4.0625 C-4.3675 4.0625 -3.0475 4.0625 -1.6875 4.0625 C-1.6875 4.7225 -1.6875 5.3825 -1.6875 6.0625 C-4.3275 6.0625 -6.9675 6.0625 -9.6875 6.0625 C-9.6875 6.7225 -9.6875 7.3825 -9.6875 8.0625 C-14.1425 9.5475 -14.1425 9.5475 -18.6875 11.0625 C-18.6875 11.7225 -18.6875 12.3825 -18.6875 13.0625 C-19.3475 13.0625 -20.0075 13.0625 -20.6875 13.0625 C-20.6875 11.4125 -20.6875 9.7625 -20.6875 8.0625 C-20.048125 7.959375 -19.40875 7.85625 -18.75 7.75 C-18.069375 7.523125 -17.38875 7.29625 -16.6875 7.0625 C-16.3575 6.0725 -16.0275 5.0825 -15.6875 4.0625 C-14.0375 4.0625 -12.3875 4.0625 -10.6875 4.0625 C-10.3575 3.0725 -10.0275 2.0825 -9.6875 1.0625 C-6.26517028 -0.07827657 -3.60076783 -0.03565117 0 0 Z " fill="#C74AFB" transform="translate(30.6875,3.9375)"/>
<path d="M0 0 C0.99 1.0209375 0.99 1.0209375 2 2.0625 C4.25127734 4.29469871 6.5375375 6.48308397 8.875 8.625 C9.49117187 9.19476563 10.10734375 9.76453125 10.7421875 10.3515625 C16.34171461 14.43979856 21.7220938 15.47245955 28.4375 15.6875 C29.16904297 15.72166016 29.90058594 15.75582031 30.65429688 15.79101562 C32.43569562 15.87251753 34.21781749 15.93795523 36 16 C36 16.66 36 17.32 36 18 C22.5595486 18.55551808 14.03691946 18.0328173 3.62890625 8.78125 C1.00009815 5.90658215 0 3.91347491 0 0 Z " fill="#4453CF" transform="translate(2,103)"/>
<path d="M0 0 C4.62 0 9.24 0 14 0 C14.33 1.65 14.66 3.3 15 5 C17.64 5.33 20.28 5.66 23 6 C23 6.33 23 6.66 23 7 C15.41 7 7.82 7 0 7 C0 6.34 0 5.68 0 5 C3.465 4.505 3.465 4.505 7 4 C4.69 3.67 2.38 3.34 0 3 C0 2.01 0 1.02 0 0 Z " fill="#2E77F2" transform="translate(38,112)"/>
<path d="M0 0 C4.39249301 -0.02494208 8.78494717 -0.04297329 13.17749023 -0.05493164 C14.66805745 -0.05992328 16.15861986 -0.06671894 17.64916992 -0.07543945 C25.49484991 -0.12015168 33.21373172 -0.1148321 41 1 C41 1.33 41 1.66 41 2 C39.9262915 2.01981934 38.85258301 2.03963867 37.74633789 2.06005859 C33.72609771 2.13668444 29.70619288 2.22530932 25.6862793 2.31738281 C23.95327421 2.35543894 22.22019639 2.39033058 20.48706055 2.421875 C17.98199638 2.468038 15.47742293 2.52594178 12.97265625 2.5859375 C11.82833885 2.60326431 11.82833885 2.60326431 10.66090393 2.62094116 C5.24812891 2.76626193 0.24209951 3.65898317 -5 5 C-3.625 3.5 -3.625 3.5 -2 2 C-1.34 2 -0.68 2 0 2 C0 1.34 0 0.68 0 0 Z " fill="#9345C4" transform="translate(20,2)"/>
<path d="M0 0 C0.66 0.33 1.32 0.66 2 1 C1.37520752 1.55655273 0.75041504 2.11310547 0.10668945 2.68652344 C-7.38186695 10.91013689 -5.55142816 26.28715262 -5.6875 36.75 C-5.72074447 38.52606571 -5.75524046 40.30210846 -5.79101562 42.078125 C-5.875093 46.38528804 -5.94228054 50.69240643 -6 55 C-6.33 55 -6.66 55 -7 55 C-7.10175694 48.71962384 -7.17161462 42.43946176 -7.21972656 36.15844727 C-7.23979182 34.02360082 -7.26705058 31.888809 -7.30175781 29.75415039 C-7.35049943 26.67841075 -7.37302006 23.60340031 -7.390625 20.52734375 C-7.41127014 19.57915268 -7.43191528 18.63096161 -7.45318604 17.65403748 C-7.45554593 10.62095438 -6.05320483 6.38033392 -1.25 1.0625 C-0.8375 0.711875 -0.425 0.36125 0 0 Z " fill="#8E41BF" transform="translate(16,15)"/>
<path d="M0 0 C3.3 0 6.6 0 10 0 C10 0.33 10 0.66 10 1 C6.37 1.99 2.74 2.98 -1 4 C2.14930893 2.95023036 4.38814456 2.89868405 7.6875 2.9375 C8.68136719 2.94652344 9.67523437 2.95554687 10.69921875 2.96484375 C11.83810547 2.98224609 11.83810547 2.98224609 13 3 C13 3.33 13 3.66 13 4 C12.3709375 4.01417969 11.741875 4.02835938 11.09375 4.04296875 C2.94881086 4.49682831 -2.37903835 7.12119607 -8 13 C-7.38722388 10.03824877 -6.74627478 8.61941217 -5 6 C-6.65 7.65 -8.3 9.3 -10 11 C-9.67 9.02 -9.34 7.04 -9 5 C-6.03 4.01 -3.06 3.02 0 2 C0 1.34 0 0.68 0 0 Z " fill="#BC50E6" transform="translate(21,10)"/>
<path d="M0 0 C0.33 0 0.66 0 1 0 C3.41148325 19.07655502 3.41148325 19.07655502 1 27 C0.34 27 -0.32 27 -1 27 C-1.02892385 22.87501462 -1.04677267 18.75005515 -1.0625 14.625 C-1.07087891 13.449375 -1.07925781 12.27375 -1.08789062 11.0625 C-1.09111328 9.94101563 -1.09433594 8.81953125 -1.09765625 7.6640625 C-1.10289307 6.62717285 -1.10812988 5.5902832 -1.11352539 4.52197266 C-1 2 -1 2 0 0 Z " fill="#864EF9" transform="translate(7,62)"/>
<path d="M0 0 C1.9375 0.8125 1.9375 0.8125 4 2 C7.09721227 11.29163682 4.82160992 23.34608349 4 33 C3.67 33 3.34 33 3 33 C2.98018066 32.24904053 2.96036133 31.49808105 2.93994141 30.72436523 C2.84420599 27.29508043 2.73472367 23.86636458 2.625 20.4375 C2.5940625 19.25607422 2.563125 18.07464844 2.53125 16.85742188 C2.33142026 10.91248725 2.02760903 5.61301523 0 0 Z " fill="#4E52C5" transform="translate(112,16)"/>
<path d="M0 0 C2.36355147 0.91492315 4.68747847 1.8415472 6.94921875 2.98828125 C12.93976772 5.94591315 18.35186768 6.75147169 25 7 C25 7.33 25 7.66 25 8 C9.78034663 8.90235099 9.78034663 8.90235099 2.5390625 4.38671875 C1 3 1 3 0 0 Z " fill="#4454CF" transform="translate(13,104)"/>
<path d="M0 0 C3.79939657 1.37105693 6.88690684 3.11560012 10.1875 5.4375 C11.04730469 6.03433594 11.90710938 6.63117187 12.79296875 7.24609375 C15 9 15 9 17 12 C17.125 15.1875 17.125 15.1875 17 18 C16.773125 17.443125 16.54625 16.88625 16.3125 16.3125 C13.16429062 10.7656549 8.19478036 7.67892174 2.890625 4.4296875 C1 3 1 3 0 0 Z " fill="#DEDEDE" transform="translate(73,47)"/>
<path d="M0 0 C0.33 0.66 0.66 1.32 1 2 C4.63 2 8.26 2 12 2 C7.9566353 4.02168235 5.67870655 4.35927761 1.25 4.625 C0.07953125 4.69976562 -1.0909375 4.77453125 -2.296875 4.8515625 C-3.18890625 4.90054688 -4.0809375 4.94953125 -5 5 C-5.33 4.01 -5.66 3.02 -6 2 C-4.02 1.34 -2.04 0.68 0 0 Z " fill="#386BF7" transform="translate(37,113)"/>
<path d="M0 0 C0.33 0 0.66 0 1 0 C1.01981934 0.64437012 1.03963867 1.28874023 1.06005859 1.95263672 C1.15645589 4.92710583 1.26566101 7.90097957 1.375 10.875 C1.4059375 11.88820313 1.436875 12.90140625 1.46875 13.9453125 C1.71999261 20.47762038 2.49857793 26.63615817 4 33 C1 31 1 31 0 28 C-0.0833804 25.86205475 -0.10733747 23.72157991 -0.09765625 21.58203125 C-0.09443359 20.32841797 -0.09121094 19.07480469 -0.08789062 17.78320312 C-0.07951172 16.47287109 -0.07113281 15.16253906 -0.0625 13.8125 C-0.05748317 12.47721519 -0.05292059 11.14192859 -0.04882812 9.80664062 C-0.03702695 6.53771527 -0.02056297 3.26888009 0 0 Z " fill="#5E47C5" transform="translate(9,70)"/>
<path d="M0 0 C0.66 0.33 1.32 0.66 2 1 C-0.991083 4.33620797 -3.75973661 6.47350518 -8 8 C-11.25 7.4375 -11.25 7.4375 -14 6 C-15.375 3.875 -15.375 3.875 -16 2 C-15.34 2 -14.68 2 -14 2 C-14 2.66 -14 3.32 -14 4 C-7.73920552 4.43177893 -4.90924297 3.92739438 0 0 Z " fill="#D4D4D6" transform="translate(55,86)"/>
<path d="M0 0 C1.2065625 0.0309375 1.2065625 0.0309375 2.4375 0.0625 C2.4375 0.7225 2.4375 1.3825 2.4375 2.0625 C3.7575 2.7225 5.0775 3.3825 6.4375 4.0625 C5.4475 5.5475 5.4475 5.5475 4.4375 7.0625 C-1.22403846 5.58557692 -1.22403846 5.58557692 -2.9375 2.9375 C-3.14375 2.31875 -3.35 1.7 -3.5625 1.0625 C-2.5625 0.0625 -2.5625 0.0625 0 0 Z " fill="#5156F8" transform="translate(11.5625,104.9375)"/>
<path d="M0 0 C1.32 1.32 2.64 2.64 4 4 C3.67 4.99 3.34 5.98 3 7 C3.309375 7.721875 3.61875 8.44375 3.9375 9.1875 C5.3625659 12.95973326 5.13624461 15.98078413 5 20 C0.65720374 15.45980391 -0.11265762 9.00995209 -0.125 2.9375 C-0.063125 1.4834375 -0.063125 1.4834375 0 0 Z " fill="#5E57E3" transform="translate(110,11)"/>
<path d="M0 0 C4.07507572 -0.04946866 8.15003497 -0.08575189 12.2253418 -0.10986328 C13.61144048 -0.1199157 14.99751799 -0.1335597 16.38354492 -0.15087891 C18.3766975 -0.17515952 20.37000533 -0.18542031 22.36328125 -0.1953125 C24.16212769 -0.21102295 24.16212769 -0.21102295 25.99731445 -0.22705078 C29 0 29 0 32 2 C30.02 2.99 30.02 2.99 28 4 C28 3.01 28 2.02 28 1 C18.76 1 9.52 1 0 1 C0 0.67 0 0.34 0 0 Z " fill="#2487EE" transform="translate(52,112)"/>
<path d="M0 0 C-0.33 0.33 -0.66 0.66 -1 1 C-0.34 1.33 0.32 1.66 1 2 C0.67 2.66 0.34 3.32 0 4 C-1.65 4 -3.3 4 -5 4 C-5.33 5.32 -5.66 6.64 -6 8 C-7.32 7.67 -8.64 7.34 -10 7 C-9.34 6.34 -8.68 5.68 -8 5 C-8 4.01 -8 3.02 -8 2 C-3.71900826 -1.23966942 -3.71900826 -1.23966942 0 0 Z " fill="#B851DE" transform="translate(20,4)"/>
<path d="M0 0 C0.66 0.33 1.32 0.66 2 1 C1.37609375 1.53109375 0.7521875 2.0621875 0.109375 2.609375 C-2.40567212 5.45976173 -2.94794961 7.56056821 -3.75 11.25 C-3.99234375 12.32765625 -4.2346875 13.4053125 -4.484375 14.515625 C-4.65453125 15.33546875 -4.8246875 16.1553125 -5 17 C-5.66 16.34 -6.32 15.68 -7 15 C-7 8.73195063 -5.56172993 5.76624708 -1.27734375 1.25 C-0.85582031 0.8375 -0.43429688 0.425 0 0 Z " fill="#A944CA" transform="translate(16,15)"/>
<path d="M0 0 C2.20314021 3.77681179 3.02090716 7.78743249 4 12 C4.33115335 13.33387644 4.66386776 14.66736952 5 16 C3.5 14.625 3.5 14.625 2 13 C2 12.34 2 11.68 2 11 C1.01 10.67 0.02 10.34 -1 10 C-1.125 3.375 -1.125 3.375 0 0 Z " fill="#5047C1" transform="translate(1,92)"/>
<path d="M0 0 C0.99 0.33 1.98 0.66 3 1 C2.67 1.99 2.34 2.98 2 4 C-1.0625 5.1875 -1.0625 5.1875 -4 6 C-4 6.66 -4 7.32 -4 8 C-4.66 8 -5.32 8 -6 8 C-6 6.35 -6 4.7 -6 3 C-5.195625 2.690625 -4.39125 2.38125 -3.5625 2.0625 C-1.10919595 1.23664655 -1.10919595 1.23664655 0 0 Z " fill="#D249FE" transform="translate(16,9)"/>
<path d="M0 0 C0 0.66 0 1.32 0 2 C0.5775 2.2475 1.155 2.495 1.75 2.75 C4.3002997 4.16683317 6.01785701 5.87627537 8 8 C7.67 8.66 7.34 9.32 7 10 C6.195625 9.071875 5.39125 8.14375 4.5625 7.1875 C0.91892809 3.49150259 -3.05537958 2.25263717 -8 1 C-8 0.67 -8 0.34 -8 0 C-4.71303767 -0.79953138 -3.28976808 -1.09658936 0 0 Z " fill="#604EDE" transform="translate(97,13)"/>
<path d="M0 0 C1.76923828 0.01353516 1.76923828 0.01353516 3.57421875 0.02734375 C4.47785156 0.03894531 5.38148437 0.05054688 6.3125 0.0625 C6.3125 0.3925 6.3125 0.7225 6.3125 1.0625 C3.6725 1.0625 1.0325 1.0625 -1.6875 1.0625 C-2.0175 1.7225 -2.3475 2.3825 -2.6875 3.0625 C-3.3475 2.7325 -4.0075 2.4025 -4.6875 2.0625 C-5.3475 2.7225 -6.0075 3.3825 -6.6875 4.0625 C-6.6875 3.4025 -6.6875 2.7425 -6.6875 2.0625 C-7.6775 1.7325 -8.6675 1.4025 -9.6875 1.0625 C-6.26517028 -0.07827657 -3.60076783 -0.03565117 0 0 Z " fill="#C14CF2" transform="translate(30.6875,3.9375)"/>
<path d="M0 0 C2.31 0 4.62 0 7 0 C5.35 1.65 3.7 3.3 2 5 C2 4.34 2 3.68 2 3 C1.34 3 0.68 3 0 3 C0 2.01 0 1.02 0 0 Z " fill="#258BE8" transform="translate(103,108)"/>
<path d="M0 0 C2.125 0.375 2.125 0.375 4 1 C2.37660195 2.70884005 0.70680947 4.37446717 -1 6 C-1.66 6 -2.32 6 -3 6 C-2.42655063 3.13275314 -2.1385485 2.1385485 0 0 Z " fill="#A942CB" transform="translate(9,8)"/>
<path d="M0 0 C3.16115776 1.36983503 3.9927092 1.9890638 6 5 C6.125 8.1875 6.125 8.1875 6 11 C5.7525 10.484375 5.505 9.96875 5.25 9.4375 C3.60418384 6.22815849 1.8023904 3.12414336 0 0 Z " fill="#E4E4E4" transform="translate(84,54)"/>
<path d="M0 0 C4.31392226 0.4793247 6.16569547 1.7457985 9 5 C4.98525763 5 3.18024863 3.33218233 0 1 C0 0.67 0 0.34 0 0 Z " fill="#CBCBCB" transform="translate(65,43)"/>
<path d="M0 0 C-0.33 2.31 -0.66 4.62 -1 7 C-2.32 5.35 -3.64 3.7 -5 2 C-2 0 -2 0 0 0 Z " fill="#6659E6" transform="translate(108,15)"/>
</svg>
