<svg width="32" height="32" viewBox="0 0 32 32" fill="none" xmlns="http://www.w3.org/2000/svg">
<rect width="32" height="32" rx="8" fill="#7c3aed"/>
<path d="M24.1649 15.0833L22.9769 13.8953C22.7724 13.6891 22.529 13.5255 22.2609 13.4138C21.9929 13.3021 21.7053 13.2446 21.4149 13.2446C21.1245 13.2446 20.8369 13.3021 20.5688 13.4138C20.3007 13.5255 20.0574 13.6891 19.8529 13.8953L14.0815 19.6667M7.66488 12.3333C7.17865 12.3333 6.71233 12.5265 6.36851 12.8703C6.0247 13.2141 5.83154 13.6804 5.83154 14.1667V23.3333C5.83154 23.8196 6.0247 24.2859 6.36851 24.6297C6.71233 24.9735 7.17865 25.1667 7.66488 25.1667H16.8315C17.3178 25.1667 17.7841 24.9735 18.1279 24.6297C18.4717 24.2859 18.6649 23.8196 18.6649 23.3333M16.8315 11.4167C16.8315 11.9229 16.4211 12.3333 15.9149 12.3333C15.4086 12.3333 14.9982 11.9229 14.9982 11.4167C14.9982 10.9104 15.4086 10.5 15.9149 10.5C16.4211 10.5 16.8315 10.9104 16.8315 11.4167ZM13.1649 6.83333H22.3315C23.3441 6.83333 24.1649 7.65414 24.1649 8.66666V17.8333C24.1649 18.8459 23.3441 19.6667 22.3315 19.6667H13.1649C12.1524 19.6667 11.3315 18.8459 11.3315 17.8333V8.66666C11.3315 7.65414 12.1524 6.83333 13.1649 6.83333Z" stroke="#FFFFFF" stroke-width="1.5" stroke-linecap="round" stroke-linejoin="round"/>
</svg>
