<svg width="22" height="22" viewBox="0 0 22 22" fill="none" xmlns="http://www.w3.org/2000/svg">
<path d="M20.1649 10.0833L18.9769 8.89533C18.7724 8.68913 18.529 8.52546 18.2609 8.41377C17.9929 8.30208 17.7053 8.24457 17.4149 8.24457C17.1245 8.24457 16.8369 8.30208 16.5688 8.41377C16.3007 8.52546 16.0574 8.68913 15.8529 8.89533L10.0815 14.6667M3.66488 7.33333C3.17865 7.33333 2.71233 7.52648 2.36851 7.8703C2.0247 8.21412 1.83154 8.68043 1.83154 9.16666V18.3333C1.83154 18.8196 2.0247 19.2859 2.36851 19.6297C2.71233 19.9735 3.17865 20.1667 3.66488 20.1667H12.8315C13.3178 20.1667 13.7841 19.9735 14.1279 19.6297C14.4717 19.2859 14.6649 18.8196 14.6649 18.3333M12.8315 6.41666C12.8315 6.92292 12.4211 7.33333 11.9149 7.33333C11.4086 7.33333 10.9982 6.92292 10.9982 6.41666C10.9982 5.9104 11.4086 5.5 11.9149 5.5C12.4211 5.5 12.8315 5.9104 12.8315 6.41666ZM9.16488 1.83333H18.3315C19.3441 1.83333 20.1649 2.65414 20.1649 3.66666V12.8333C20.1649 13.8459 19.3441 14.6667 18.3315 14.6667H9.16488C8.15236 14.6667 7.33154 13.8459 7.33154 12.8333V3.66666C7.33154 2.65414 8.15236 1.83333 9.16488 1.83333Z" stroke="#F9FAFB" stroke-width="1.09091" stroke-linecap="round" stroke-linejoin="round"/>
</svg>
