<svg width="22" height="22" viewBox="0 0 22 22" fill="none" xmlns="http://www.w3.org/2000/svg">
<path d="M18.3337 1.83324V5.4999M20.167 3.66657H16.5004M10.0993 2.57941C10.1386 2.36913 10.2502 2.1792 10.4147 2.04253C10.5793 1.90586 10.7865 1.83105 11.0004 1.83105C11.2143 1.83105 11.4215 1.90586 11.586 2.04253C11.7506 2.1792 11.8622 2.36913 11.9015 2.57941L12.8649 7.67423C12.9333 8.03644 13.1093 8.36962 13.37 8.63028C13.6306 8.89094 13.9638 9.06696 14.326 9.13539L19.4209 10.0988C19.6311 10.1381 19.8211 10.2497 19.9577 10.4142C20.0944 10.5788 20.1692 10.786 20.1692 10.9999C20.1692 11.2138 20.0944 11.421 19.9577 11.5855C19.8211 11.7501 19.6311 11.8617 19.4209 11.901L14.326 12.8644C13.9638 12.9328 13.6306 13.1088 13.37 13.3695C13.1093 13.6301 12.9333 13.9633 12.8649 14.3255L11.9015 19.4204C11.8622 19.6306 11.7506 19.8206 11.586 19.9572C11.4215 20.0939 11.2143 20.1687 11.0004 20.1687C10.7865 20.1687 10.5793 20.0939 10.4147 19.9572C10.2502 19.8206 10.1386 19.6306 10.0993 19.4204L9.13588 14.3255C9.06746 13.9633 8.89143 13.6301 8.63077 13.3695C8.37011 13.1088 8.03694 12.9328 7.67472 12.8644L2.5799 11.901C2.36962 11.8617 2.1797 11.7501 2.04302 11.5855C1.90635 11.421 1.83154 11.2138 1.83154 10.9999C1.83154 10.786 1.90635 10.5788 2.04302 10.4142C2.1797 10.2497 2.36962 10.1381 2.5799 10.0988L7.67472 9.13539C8.03694 9.06696 8.37011 8.89094 8.63077 8.63028C8.89143 8.36962 9.06746 8.03644 9.13588 7.67423L10.0993 2.57941ZM5.50039 18.3332C5.50039 19.3457 4.67958 20.1665 3.66706 20.1665C2.65454 20.1665 1.83373 19.3457 1.83373 18.3332C1.83373 17.3207 2.65454 16.4999 3.66706 16.4999C4.67958 16.4999 5.50039 17.3207 5.50039 18.3332Z" stroke="#F9FAFB" stroke-width="1.09091" stroke-linecap="round" stroke-linejoin="round"/>
</svg>
