<svg width="11" height="11" viewBox="0 0 11 11" fill="none" xmlns="http://www.w3.org/2000/svg">
<g clip-path="url(#clip0_1153_16309)">
<path d="M0.91498 4.3538C0.914989 3.84381 1.0697 3.34582 1.35867 2.92561C1.64764 2.50539 2.05728 2.18271 2.53349 2.00019C3.0097 1.81767 3.53008 1.7839 4.02588 1.90333C4.52169 2.02276 4.96961 2.28978 5.31047 2.66912C5.33448 2.69479 5.36351 2.71525 5.39575 2.72924C5.42799 2.74323 5.46277 2.75045 5.49792 2.75045C5.53306 2.75045 5.56784 2.74323 5.60008 2.72924C5.63232 2.71525 5.66135 2.69479 5.68536 2.66912C6.02516 2.28731 6.47317 2.01805 6.96979 1.89717C7.4664 1.77628 7.98805 1.80951 8.46531 1.99244C8.94257 2.17536 9.3528 2.4993 9.6414 2.92113C9.93 3.34297 10.0833 3.8427 10.0809 4.3538C10.0809 5.4033 9.39341 6.18698 8.70597 6.87442L6.18902 9.30933C6.10363 9.40741 5.99834 9.48619 5.88015 9.54045C5.76197 9.59471 5.63359 9.62319 5.50355 9.62402C5.37351 9.62484 5.24478 9.59798 5.12591 9.54523C5.00705 9.49247 4.90077 9.41503 4.81414 9.31804L2.28986 6.87442C1.60242 6.18698 0.91498 5.40788 0.91498 4.3538Z" stroke="#F9FAFB" stroke-width="0.663273" stroke-linecap="round" stroke-linejoin="round"/>
</g>
<defs>
<clipPath id="clip0_1153_16309">
<rect width="10.6124" height="10.6124" fill="white" transform="scale(1.03644)"/>
</clipPath>
</defs>
</svg>
