<svg width="18" height="18" viewBox="0 0 18 18" fill="none" xmlns="http://www.w3.org/2000/svg">
<path d="M12.0018 3.74991H16.5018M14.2518 1.49992V5.9999M15.7518 8.6249V14.2499C15.7518 14.6477 15.5938 15.0292 15.3125 15.3105C15.0311 15.5918 14.6496 15.7499 14.2518 15.7499H3.75182C3.354 15.7499 2.97247 15.5918 2.69116 15.3105C2.40986 15.0292 2.25183 14.6477 2.25183 14.2499V3.74991C2.25183 3.35209 2.40986 2.97056 2.69116 2.68925C2.97247 2.40795 3.354 2.24991 3.75182 2.24991H9.37681M15.7518 11.2499L13.4373 8.9354C13.156 8.65419 12.7745 8.49622 12.3768 8.49622C11.9791 8.49622 11.5976 8.65419 11.3163 8.9354L4.50182 15.7499M8.25181 6.7499C8.25181 7.57833 7.58024 8.2499 6.75181 8.2499C5.92339 8.2499 5.25182 7.57833 5.25182 6.7499C5.25182 5.92148 5.92339 5.24991 6.75181 5.24991C7.58024 5.24991 8.25181 5.92148 8.25181 6.7499Z" stroke="#C7CBD1" stroke-width="1.09091" stroke-linecap="round" stroke-linejoin="round"/>
</svg>
