<svg width="18" height="18" viewBox="0 0 18 18" fill="none" xmlns="http://www.w3.org/2000/svg">
<g clip-path="url(#clip0_0_87)">
<path d="M16.5025 8.2499L15.5305 7.2779C15.3632 7.10919 15.1641 6.97528 14.9448 6.8839C14.7254 6.79251 14.4901 6.74547 14.2525 6.74547C14.0149 6.74547 13.7796 6.79251 13.5603 6.8839C13.3409 6.97528 13.1419 7.10919 12.9745 7.2779L8.25254 11.9999M3.00256 5.9999C2.60473 5.9999 2.2232 6.15794 1.9419 6.43924C1.66059 6.72055 1.50256 7.10208 1.50256 7.4999V14.9999C1.50256 15.3977 1.66059 15.7792 1.9419 16.0605C2.2232 16.3418 2.60473 16.4999 3.00256 16.4999H10.5025C10.9004 16.4999 11.2819 16.3418 11.5632 16.0605C11.8445 15.7792 12.0025 15.3977 12.0025 14.9999M10.5025 5.24991C10.5025 5.66412 10.1668 5.9999 9.75254 5.9999C9.33833 5.9999 9.00254 5.66412 9.00254 5.24991C9.00254 4.83569 9.33833 4.49991 9.75254 4.49991C10.1668 4.49991 10.5025 4.83569 10.5025 5.24991ZM7.50254 1.49992H15.0025C15.8309 1.49992 16.5025 2.17149 16.5025 2.99991V10.4999C16.5025 11.3283 15.8309 11.9999 15.0025 11.9999H7.50254C6.67412 11.9999 6.00255 11.3283 6.00255 10.4999V2.99991C6.00255 2.17149 6.67412 1.49992 7.50254 1.49992Z" stroke="#C7CBD1" stroke-width="1.09091" stroke-linecap="round" stroke-linejoin="round"/>
</g>
<defs>
<clipPath id="clip0_0_87">
<rect width="17.4545" height="17.4545" fill="white" transform="scale(1.03125)"/>
</clipPath>
</defs>
</svg>
