<svg width="18" height="18" viewBox="0 0 18 18" fill="none" xmlns="http://www.w3.org/2000/svg">
<path d="M8.25257 12.75L9.75257 14.25C9.90031 14.3978 10.0757 14.5149 10.2687 14.5949C10.4618 14.6749 10.6686 14.716 10.8776 14.716C11.0865 14.716 11.2934 14.6749 11.4864 14.5949C11.6794 14.5149 11.8548 14.3978 12.0026 14.25C12.1503 14.1023 12.2675 13.9269 12.3475 13.7339C12.4274 13.5408 12.4686 13.3339 12.4686 13.125C12.4686 12.9161 12.4274 12.7092 12.3475 12.5162C12.2675 12.3231 12.1503 12.1478 12.0026 12M10.5026 10.5L12.3776 12.375C12.6759 12.6734 13.0806 12.841 13.5026 12.841C13.9245 12.841 14.3292 12.6734 14.6276 12.375C14.9259 12.0766 15.0936 11.672 15.0936 11.25C15.0936 10.8281 14.9259 10.4234 14.6276 10.125L11.7176 7.21501C11.2957 6.79366 10.7238 6.55699 10.1276 6.55699C9.53132 6.55699 8.95945 6.79366 8.53757 7.21501L7.87757 7.87501C7.5792 8.17338 7.17453 8.341 6.75257 8.341C6.33061 8.341 5.92594 8.17338 5.62757 7.87501C5.3292 7.57664 5.16158 7.17197 5.16158 6.75001C5.16158 6.32805 5.3292 5.92338 5.62757 5.62501L7.73507 3.51751C8.41925 2.83512 9.31149 2.40042 10.2706 2.28224C11.2296 2.16405 12.2007 2.36913 13.0301 2.86501L13.3826 3.07501C13.7019 3.26775 14.0816 3.3346 14.4476 3.26251L15.7526 3.00001M15.7526 2.25001L16.5026 10.5H15.0026M2.25257 2.25001L1.50256 10.5L6.37757 15.375C6.67594 15.6734 7.08061 15.841 7.50257 15.841C7.92453 15.841 8.3292 15.6734 8.62757 15.375C8.92594 15.0767 9.09356 14.672 9.09356 14.25C9.09356 13.8281 8.92594 13.4234 8.62757 13.125M2.25257 3.00001H8.25257" stroke="#C7CBD1" stroke-width="1.09091" stroke-linecap="round" stroke-linejoin="round"/>
</svg>
