<svg width="18" height="18" viewBox="0 0 18 18" fill="none" xmlns="http://www.w3.org/2000/svg">
<path d="M13.5026 15.75C13.5026 14.1587 12.8704 12.6326 11.7452 11.5074C10.62 10.3822 9.09387 9.75001 7.50257 9.75001M7.50257 9.75001C5.91127 9.75001 4.38515 10.3822 3.25993 11.5074C2.13471 12.6326 1.50256 14.1587 1.50256 15.75M7.50257 9.75001C9.57364 9.75001 11.2526 8.07108 11.2526 6.00001C11.2526 3.92894 9.57364 2.25001 7.50257 2.25001C5.4315 2.25001 3.75257 3.92894 3.75257 6.00001C3.75257 8.07108 5.4315 9.75001 7.50257 9.75001ZM16.5026 15C16.5026 12.4725 15.0026 10.125 13.5026 9.00001C13.9956 8.63009 14.3899 8.14433 14.6505 7.58571C14.9111 7.0271 15.03 6.41286 14.9966 5.79736C14.9632 5.18186 14.7786 4.58407 14.4592 4.05691C14.1397 3.52974 13.6952 3.08946 13.1651 2.77501" stroke="#C7CBD1" stroke-width="1.09091" stroke-linecap="round" stroke-linejoin="round"/>
</svg>
