<svg width="18" height="18" viewBox="0 0 18 18" fill="none" xmlns="http://www.w3.org/2000/svg">
<g clip-path="url(#clip0_0_44)">
<path d="M15.0043 1.49995V4.49994M16.5043 2.99995H13.5043M8.26709 2.11045C8.29922 1.9384 8.39052 1.78301 8.52516 1.67119C8.6598 1.55937 8.82931 1.49815 9.00434 1.49815C9.17936 1.49815 9.34887 1.55937 9.48351 1.67119C9.61815 1.78301 9.70945 1.9384 9.74158 2.11045L10.5298 6.27894C10.5858 6.5753 10.7298 6.8479 10.9431 7.06116C11.1564 7.27443 11.429 7.41845 11.7253 7.47443L15.8938 8.26268C16.0659 8.29482 16.2213 8.38611 16.3331 8.52075C16.4449 8.6554 16.5061 8.82491 16.5061 8.99993C16.5061 9.17495 16.4449 9.34446 16.3331 9.47911C16.2213 9.61375 16.0659 9.70504 15.8938 9.73718L11.7253 10.5254C11.429 10.5814 11.1564 10.7254 10.9431 10.9387C10.7298 11.152 10.5858 11.4246 10.5298 11.7209L9.74158 15.8894C9.70945 16.0615 9.61815 16.2168 9.48351 16.3287C9.34887 16.4405 9.17936 16.5017 9.00434 16.5017C8.82931 16.5017 8.6598 16.4405 8.52516 16.3287C8.39052 16.2168 8.29922 16.0615 8.26709 15.8894L7.47884 11.7209C7.42286 11.4246 7.27883 11.152 7.06557 10.9387C6.8523 10.7254 6.5797 10.5814 6.28334 10.5254L2.11485 9.73718C1.94281 9.70504 1.78742 9.61375 1.67559 9.47911C1.56377 9.34446 1.50256 9.17495 1.50256 8.99993C1.50256 8.82491 1.56377 8.6554 1.67559 8.52075C1.78742 8.38611 1.94281 8.29482 2.11485 8.26268L6.28334 7.47443C6.5797 7.41845 6.8523 7.27443 7.06557 7.06116C7.27883 6.8479 7.42286 6.5753 7.47884 6.27894L8.26709 2.11045ZM4.50435 14.9999C4.50435 15.8283 3.83278 16.4999 3.00435 16.4999C2.17593 16.4999 1.50436 15.8283 1.50436 14.9999C1.50436 14.1715 2.17593 13.4999 3.00435 13.4999C3.83278 13.4999 4.50435 14.1715 4.50435 14.9999Z" stroke="#C7CBD1" stroke-width="1.09091" stroke-linecap="round" stroke-linejoin="round"/>
</g>
<defs>
<clipPath id="clip0_0_44">
<rect width="17.4545" height="17.4545" fill="white" transform="scale(1.03125)"/>
</clipPath>
</defs>
</svg>
