<svg width="18" height="18" viewBox="0 0 18 18" fill="none" xmlns="http://www.w3.org/2000/svg">
<path d="M6.00234 9.00001H6.00984M9.00234 9.00001H9.00984M12.0023 9.00001H12.0098M2.24633 12.2565C2.35661 12.5347 2.38117 12.8395 2.31683 13.1318L1.51808 15.5993C1.49235 15.7244 1.499 15.854 1.53742 15.9759C1.57583 16.0977 1.64473 16.2077 1.73758 16.2955C1.83044 16.3832 1.94417 16.4458 2.06798 16.4773C2.1918 16.5087 2.3216 16.508 2.44508 16.4753L5.00484 15.7268C5.28062 15.6721 5.56623 15.696 5.82909 15.7958C7.43063 16.5437 9.24487 16.7019 10.9517 16.2426C12.6585 15.7832 14.1483 14.7358 15.1581 13.285C16.1679 11.8343 16.6329 10.0736 16.4711 8.31342C16.3092 6.55328 15.5309 4.90686 14.2734 3.66466C13.0159 2.42245 11.3601 1.66429 9.59813 1.52393C7.83614 1.38357 6.08119 1.87004 4.64292 2.89751C3.20465 3.92498 2.17548 5.42742 1.737 7.13974C1.29852 8.85206 1.47891 10.6642 2.24633 12.2565Z" stroke="#C7CBD1" stroke-width="1.09091" stroke-linecap="round" stroke-linejoin="round"/>
</svg>
