<svg width="18" height="18" viewBox="0 0 18 18" fill="none" xmlns="http://www.w3.org/2000/svg">
<path d="M11.2518 15.7499V9.74988C11.2518 9.55097 11.1728 9.36021 11.0321 9.21955C10.8915 9.0789 10.7007 8.99988 10.5018 8.99988H7.50181C7.3029 8.99988 7.11214 9.0789 6.97148 9.21955C6.83083 9.36021 6.75181 9.55097 6.75181 9.74988V15.7499M2.25183 7.49989C2.25177 7.28169 2.29933 7.06611 2.39117 6.86818C2.48301 6.67025 2.61692 6.49474 2.78357 6.35389L8.03356 1.85465C8.3043 1.62583 8.64733 1.50029 9.00181 1.50029C9.35629 1.50029 9.69932 1.62583 9.97006 1.85465L15.22 6.35389C15.3867 6.49474 15.5206 6.67025 15.6125 6.86818C15.7043 7.06611 15.7518 7.28169 15.7518 7.49989V14.2499C15.7518 14.6477 15.5938 15.0292 15.3125 15.3105C15.0311 15.5918 14.6496 15.7499 14.2518 15.7499H3.75182C3.354 15.7499 2.97247 15.5918 2.69116 15.3105C2.40986 15.0292 2.25183 14.6477 2.25183 14.2499V7.49989Z" stroke="#C7CBD1" stroke-width="1.09091" stroke-linecap="round" stroke-linejoin="round"/>
</svg>
