<svg width="18" height="18" viewBox="0 0 18 18" fill="none" xmlns="http://www.w3.org/2000/svg">
<path d="M12.0044 9.75004L15.9217 12.3615C15.9781 12.3991 16.0437 12.4207 16.1115 12.4239C16.1792 12.4272 16.2466 12.412 16.3064 12.3799C16.3662 12.3479 16.4162 12.3003 16.4511 12.2421C16.4859 12.1839 16.5044 12.1174 16.5044 12.0495V5.90254C16.5044 5.83656 16.487 5.77174 16.454 5.71462C16.4209 5.65751 16.3734 5.61013 16.3162 5.57726C16.259 5.54439 16.1941 5.52721 16.1281 5.52743C16.0622 5.52765 15.9974 5.54528 15.9404 5.57854L12.0044 7.87504" stroke="#C7CBD1" stroke-width="1.09091" stroke-linecap="round" stroke-linejoin="round"/>
<path d="M10.5066 4.50002H3.00659C2.17817 4.50002 1.50659 5.17159 1.50659 6.00002V12C1.50659 12.8285 2.17817 13.5 3.00659 13.5H10.5066C11.335 13.5 12.0066 12.8285 12.0066 12V6.00002C12.0066 5.17159 11.335 4.50002 10.5066 4.50002Z" stroke="#9AA0A6" stroke-width="1.09091" stroke-linecap="round" stroke-linejoin="round"/>
</svg>
