<svg width="18" height="18" viewBox="0 0 18 18" fill="none" xmlns="http://www.w3.org/2000/svg">
<path d="M7.25458 3.10201C7.29591 2.66726 7.49783 2.26354 7.82091 1.96972C8.14399 1.67589 8.565 1.51308 9.00171 1.51308C9.43841 1.51308 9.85943 1.67589 10.1825 1.96972C10.5056 2.26354 10.7075 2.66726 10.7488 3.10201C10.7737 3.38285 10.8658 3.65357 11.0174 3.89126C11.1691 4.12895 11.3757 4.32662 11.6199 4.46752C11.8641 4.60842 12.1387 4.68841 12.4204 4.70072C12.702 4.71304 12.9825 4.65731 13.2381 4.53826C13.6349 4.35809 14.0846 4.33202 14.4996 4.46512C14.9146 4.59822 15.2652 4.88097 15.4832 5.25834C15.7012 5.6357 15.7711 6.08069 15.6791 6.50669C15.5871 6.93269 15.3399 7.30922 14.9856 7.56301C14.7549 7.7249 14.5665 7.93997 14.4365 8.19003C14.3065 8.44009 14.2386 8.71779 14.2386 8.99964C14.2386 9.28148 14.3065 9.55918 14.4365 9.80924C14.5665 10.0593 14.7549 10.2744 14.9856 10.4363C15.3399 10.6901 15.5871 11.0666 15.6791 11.4926C15.7711 11.9186 15.7012 12.3636 15.4832 12.7409C15.2652 13.1183 14.9146 13.4011 14.4996 13.5342C14.0846 13.6673 13.6349 13.6412 13.2381 13.461C12.9825 13.342 12.702 13.2862 12.4204 13.2986C12.1387 13.3109 11.8641 13.3909 11.6199 13.5318C11.3757 13.6727 11.1691 13.8703 11.0174 14.108C10.8658 14.3457 10.7737 14.6164 10.7488 14.8973C10.7075 15.332 10.5056 15.7357 10.1825 16.0296C9.85943 16.3234 9.43841 16.4862 9.00171 16.4862C8.565 16.4862 8.14399 16.3234 7.82091 16.0296C7.49783 15.7357 7.29591 15.332 7.25458 14.8973C7.22979 14.6163 7.13766 14.3455 6.98598 14.1077C6.83431 13.8699 6.62756 13.6722 6.38326 13.5313C6.13895 13.3904 5.86428 13.3104 5.58252 13.2982C5.30075 13.286 5.02018 13.3418 4.76458 13.461C4.36775 13.6412 3.91808 13.6673 3.50308 13.5342C3.08809 13.4011 2.73746 13.1183 2.51944 12.7409C2.30142 12.3636 2.23162 11.9186 2.3236 11.4926C2.41558 11.0666 2.66278 10.6901 3.01708 10.4363C3.24779 10.2744 3.43613 10.0593 3.56615 9.80924C3.69617 9.55918 3.76405 9.28148 3.76405 8.99964C3.76405 8.71779 3.69617 8.44009 3.56615 8.19003C3.43613 7.93997 3.24779 7.7249 3.01708 7.56301C2.66328 7.3091 2.41652 6.93271 2.32476 6.507C2.23299 6.08129 2.30279 5.63667 2.52057 5.25954C2.73835 4.88242 3.08856 4.59974 3.50315 4.46644C3.91773 4.33314 4.36707 4.35873 4.76383 4.53826C5.0194 4.65731 5.29989 4.71304 5.58156 4.70072C5.86323 4.68841 6.13778 4.60842 6.38199 4.46752C6.62619 4.32662 6.83285 4.12895 6.98448 3.89126C7.13611 3.65357 7.22825 3.38285 7.25308 3.10201M11.2513 9.00001C11.2513 10.2427 10.244 11.25 9.00134 11.25C7.75869 11.25 6.75133 10.2427 6.75133 9.00001C6.75133 7.75737 7.75869 6.75001 9.00134 6.75001C10.244 6.75001 11.2513 7.75737 11.2513 9.00001Z" stroke="#C7CBD1" stroke-width="1.09091" stroke-linecap="round" stroke-linejoin="round"/>
</svg>
