<svg width="15" height="15" viewBox="0 0 15 15" fill="none" xmlns="http://www.w3.org/2000/svg">
<g clip-path="url(#clip0_1153_16289)">
<path d="M11.4833 0H3.51528C1.57385 0 0 1.57385 0 3.51528V11.4833C0 13.4247 1.57385 14.9985 3.51528 14.9985H11.4833C13.4247 14.9985 14.9985 13.4247 14.9985 11.4833V3.51528C14.9985 1.57385 13.4247 0 11.4833 0Z" fill="url(#paint0_radial_1153_16289)"/>
<path d="M11.4833 0H3.51528C1.57385 0 0 1.57385 0 3.51528V11.4833C0 13.4247 1.57385 14.9985 3.51528 14.9985H11.4833C13.4247 14.9985 14.9985 13.4247 14.9985 11.4833V3.51528C14.9985 1.57385 13.4247 0 11.4833 0Z" fill="url(#paint1_radial_1153_16289)"/>
<path d="M7.4987 1.64044C5.90756 1.64044 5.70784 1.64741 5.08294 1.67582C4.45921 1.70441 4.03345 1.80314 3.66095 1.94802C3.27555 2.09766 2.94869 2.29785 2.62306 2.6236C2.29713 2.94929 2.09694 3.27616 1.94684 3.66137C1.80154 4.03399 1.7027 4.45993 1.67464 5.08336C1.64669 5.70832 1.63937 5.90811 1.63937 7.4993C1.63937 9.09049 1.6464 9.28957 1.67475 9.91447C1.70346 10.5382 1.80218 10.964 1.94695 11.3365C2.0967 11.7219 2.2969 12.0487 2.62265 12.3743C2.94822 12.7003 3.27509 12.9009 3.66018 13.0506C4.03298 13.1955 4.4588 13.2942 5.08241 13.3228C5.70737 13.3512 5.90692 13.3582 7.49799 13.3582C9.0893 13.3582 9.28838 13.3512 9.91328 13.3228C10.537 13.2942 10.9632 13.1955 11.336 13.0506C11.7213 12.9009 12.0476 12.7003 12.3732 12.3743C12.6991 12.0487 12.8992 11.7219 13.0494 11.3366C13.1934 10.964 13.2923 10.5381 13.3216 9.91459C13.3496 9.28969 13.357 9.09049 13.357 7.4993C13.357 5.90811 13.3496 5.70844 13.3216 5.08348C13.2923 4.45975 13.1934 4.03405 13.0494 3.66155C12.8992 3.27616 12.6991 2.94929 12.3732 2.6236C12.0473 2.29774 11.7214 2.09754 11.3357 1.94808C10.9622 1.80314 10.5362 1.70436 9.91246 1.67582C9.28751 1.64741 9.08854 1.64044 7.49688 1.64044H7.4987ZM6.9731 2.69625C7.12912 2.69602 7.30319 2.69625 7.4987 2.69625C9.06306 2.69625 9.24843 2.70188 9.86618 2.72994C10.4374 2.75607 10.7475 2.85151 10.954 2.93172C11.2274 3.03788 11.4223 3.16484 11.6273 3.36995C11.8323 3.57501 11.9592 3.77029 12.0657 4.04372C12.1459 4.24995 12.2415 4.55999 12.2675 5.13123C12.2955 5.74886 12.3016 5.93435 12.3016 7.49795C12.3016 9.06155 12.2955 9.24709 12.2675 9.86467C12.2413 10.4359 12.1459 10.746 12.0657 10.9522C11.9595 11.2257 11.8323 11.4204 11.6273 11.6253C11.4222 11.8304 11.2275 11.9573 10.954 12.0635C10.7477 12.144 10.4374 12.2392 9.86618 12.2654C9.24854 12.2934 9.06306 12.2995 7.4987 12.2995C5.93428 12.2995 5.74885 12.2934 5.13127 12.2654C4.56004 12.239 4.24999 12.1436 4.04329 12.0634C3.76992 11.9571 3.57459 11.8302 3.36953 11.6252C3.16447 11.4201 3.03757 11.2253 2.93112 10.9518C2.85091 10.7455 2.75535 10.4354 2.72934 9.8642C2.70127 9.24657 2.69565 9.06108 2.69565 7.49648C2.69565 5.93189 2.70127 5.7474 2.72934 5.12976C2.75547 4.55853 2.85091 4.24848 2.93112 4.04196C3.03734 3.76853 3.16447 3.57326 3.36959 3.3682C3.5747 3.16314 3.76992 3.03618 4.04335 2.92978C4.24987 2.84922 4.56004 2.75402 5.13127 2.72777C5.67175 2.70334 5.8812 2.69602 6.9731 2.69479V2.69625ZM10.6261 3.66905C10.238 3.66905 9.92307 3.98366 9.92307 4.37187C9.92307 4.76001 10.238 5.07492 10.6261 5.07492C11.0143 5.07492 11.3292 4.76001 11.3292 4.37187C11.3292 3.98372 11.0143 3.66881 10.6261 3.66881V3.66905ZM7.4987 4.49051C5.83714 4.49051 4.48997 5.83768 4.48997 7.4993C4.48997 9.16091 5.83714 10.5074 7.4987 10.5074C9.16031 10.5074 10.507 9.16091 10.507 7.4993C10.507 5.83774 9.16019 4.49051 7.49858 4.49051H7.4987ZM7.4987 5.54632C8.57724 5.54632 9.45167 6.42063 9.45167 7.4993C9.45167 8.57784 8.57724 9.45227 7.4987 9.45227C6.42015 9.45227 5.54578 8.57784 5.54578 7.4993C5.54578 6.42063 6.42009 5.54632 7.4987 5.54632Z" fill="white"/>
</g>
<defs>
<radialGradient id="paint0_radial_1153_16289" cx="0" cy="0" r="1" gradientUnits="userSpaceOnUse" gradientTransform="translate(3.98399 16.1537) rotate(-90) scale(14.8647 13.8253)">
<stop stop-color="#FFDD55"/>
<stop offset="0.1" stop-color="#FFDD55"/>
<stop offset="0.5" stop-color="#FF543E"/>
<stop offset="1" stop-color="#C837AB"/>
</radialGradient>
<radialGradient id="paint1_radial_1153_16289" cx="0" cy="0" r="1" gradientUnits="userSpaceOnUse" gradientTransform="translate(-2.51231 1.08042) rotate(78.681) scale(6.64459 27.3892)">
<stop stop-color="#3771C8"/>
<stop offset="0.128" stop-color="#3771C8"/>
<stop offset="1" stop-color="#6600FF" stop-opacity="0"/>
</radialGradient>
<clipPath id="clip0_1153_16289">
<rect width="14.5455" height="14.5455" fill="white" transform="scale(1.03115)"/>
</clipPath>
</defs>
</svg>
