<svg width="10" height="10" viewBox="0 0 10 10" fill="none" xmlns="http://www.w3.org/2000/svg">
<g clip-path="url(#clip0_0_123)">
<path d="M7.65501 0H2.34337C1.04916 0 0 1.04916 0 2.34337V7.65501C0 8.94921 1.04916 9.99838 2.34337 9.99838H7.65501C8.94921 9.99838 9.99838 8.94921 9.99838 7.65501V2.34337C9.99838 1.04916 8.94921 0 7.65501 0Z" fill="url(#paint0_radial_0_123)"/>
<path d="M7.65501 0H2.34337C1.04916 0 0 1.04916 0 2.34337V7.65501C0 8.94921 1.04916 9.99838 2.34337 9.99838H7.65501C8.94921 9.99838 9.99838 8.94921 9.99838 7.65501V2.34337C9.99838 1.04916 8.94921 0 7.65501 0Z" fill="url(#paint1_radial_0_123)"/>
<path d="M4.99932 1.09362C3.93864 1.09362 3.80549 1.09827 3.38892 1.11721C2.97313 1.13627 2.68931 1.20208 2.44099 1.29866C2.18408 1.39841 1.96618 1.53187 1.74911 1.74902C1.53184 1.96613 1.39838 2.18403 1.29832 2.44082C1.20146 2.68922 1.13558 2.97316 1.11687 3.38875C1.09824 3.80537 1.09336 3.93855 1.09336 4.99927C1.09336 6.06 1.09804 6.19271 1.11695 6.60929C1.13608 7.02508 1.20189 7.3089 1.2984 7.55722C1.39823 7.81413 1.53168 8.03202 1.74884 8.2491C1.96587 8.46637 2.18376 8.60013 2.44048 8.69988C2.689 8.79647 2.97286 8.86228 3.38857 8.88134C3.80518 8.90028 3.93821 8.90493 4.99885 8.90493C6.05966 8.90493 6.19237 8.90028 6.60894 8.88134C7.02474 8.86228 7.30887 8.79647 7.55738 8.69988C7.81418 8.60013 8.03176 8.46637 8.24876 8.2491C8.46603 8.03202 8.59944 7.81413 8.69954 7.55734C8.79554 7.3089 8.86147 7.025 8.881 6.60936C8.89971 6.19279 8.90459 6.06 8.90459 4.99927C8.90459 3.93855 8.89971 3.80544 8.881 3.38883C8.86147 2.97304 8.79554 2.68926 8.69954 2.44094C8.59944 2.18403 8.46603 1.96613 8.24876 1.74902C8.03153 1.53179 7.81426 1.39833 7.55715 1.2987C7.30817 1.20208 7.02419 1.13623 6.6084 1.11721C6.19179 1.09827 6.05915 1.09362 4.99811 1.09362H4.99932ZM4.64895 1.79745C4.75296 1.79729 4.86899 1.79745 4.99932 1.79745C6.04216 1.79745 6.16574 1.8012 6.57754 1.81991C6.95834 1.83733 7.16503 1.90095 7.3027 1.95442C7.48497 2.02519 7.61491 2.10982 7.75153 2.24656C7.88823 2.38325 7.97283 2.51343 8.04379 2.6957C8.09726 2.83318 8.16096 3.03987 8.1783 3.42066C8.19701 3.83239 8.20107 3.95604 8.20107 4.99838C8.20107 6.04071 8.19701 6.1644 8.1783 6.57609C8.16088 6.95689 8.09726 7.16357 8.04379 7.30109C7.97302 7.48336 7.88823 7.61315 7.75153 7.74976C7.61484 7.88646 7.48505 7.97106 7.3027 8.04187C7.16518 8.09557 6.95834 8.15903 6.57754 8.17645C6.16581 8.19516 6.04216 8.19922 4.99932 8.19922C3.95645 8.19922 3.83283 8.19516 3.42114 8.17645C3.04034 8.15888 2.83366 8.09525 2.69587 8.04179C2.51363 7.97098 2.38342 7.88638 2.24672 7.74969C2.11003 7.61299 2.02543 7.48313 1.95447 7.30077C1.901 7.16326 1.8373 6.95657 1.81996 6.57578C1.80125 6.16405 1.7975 6.04039 1.7975 4.9974C1.7975 3.9544 1.80125 3.83142 1.81996 3.41969C1.83738 3.03889 1.901 2.8322 1.95447 2.69453C2.02527 2.51226 2.11003 2.38208 2.24676 2.24538C2.3835 2.10869 2.51363 2.02405 2.69591 1.95313C2.83358 1.89943 3.04034 1.83596 3.42114 1.81846C3.78143 1.80218 3.92106 1.79729 4.64895 1.79647V1.79745ZM7.08414 2.44594C6.82539 2.44594 6.61547 2.65567 6.61547 2.91446C6.61547 3.1732 6.82539 3.38313 7.08414 3.38313C7.34289 3.38313 7.55282 3.1732 7.55282 2.91446C7.55282 2.65571 7.34289 2.44578 7.08414 2.44578V2.44594ZM4.99932 2.99354C3.89169 2.99354 2.99363 3.8916 2.99363 4.99927C2.99363 6.10695 3.89169 7.00457 4.99932 7.00457C6.10699 7.00457 7.00474 6.10695 7.00474 4.99927C7.00474 3.89164 6.10692 2.99354 4.99925 2.99354H4.99932ZM4.99932 3.69738C5.71831 3.69738 6.30122 4.28021 6.30122 4.99927C6.30122 5.71826 5.71831 6.30117 4.99932 6.30117C4.28034 6.30117 3.69746 5.71826 3.69746 4.99927C3.69746 4.28021 4.2803 3.69738 4.99932 3.69738Z" fill="white"/>
</g>
<defs>
<radialGradient id="paint0_radial_0_123" cx="0" cy="0" r="1" gradientUnits="userSpaceOnUse" gradientTransform="translate(2.65582 10.7684) rotate(-90) scale(9.90913 9.21628)">
<stop stop-color="#FFDD55"/>
<stop offset="0.1" stop-color="#FFDD55"/>
<stop offset="0.5" stop-color="#FF543E"/>
<stop offset="1" stop-color="#C837AB"/>
</radialGradient>
<radialGradient id="paint1_radial_0_123" cx="0" cy="0" r="1" gradientUnits="userSpaceOnUse" gradientTransform="translate(-1.67477 0.720235) rotate(78.681) scale(4.42944 18.2583)">
<stop stop-color="#3771C8"/>
<stop offset="0.128" stop-color="#3771C8"/>
<stop offset="1" stop-color="#6600FF" stop-opacity="0"/>
</radialGradient>
<clipPath id="clip0_0_123">
<rect width="9.28755" height="9.28755" fill="white" transform="scale(1.07653)"/>
</clipPath>
</defs>
</svg>
