<svg width="8" height="10" viewBox="0 0 8 10" fill="none" xmlns="http://www.w3.org/2000/svg">
<path d="M5.42853 3.34352C6.10112 3.82407 6.9251 4.10682 7.81501 4.10682V2.39527C7.64658 2.39534 7.4786 2.37776 7.31383 2.34284V3.69008C6.42399 3.69008 5.60012 3.40737 4.92738 2.92685V6.41967C4.92738 8.16697 3.51017 9.58332 1.76211 9.58332C1.10986 9.58332 0.503599 9.38623 0 9.04821C0.57479 9.63564 1.37637 10 2.26315 10C4.01136 10 5.4286 8.58368 5.4286 6.8363V3.34352H5.42853ZM6.04682 1.61677C5.70307 1.24144 5.47736 0.756388 5.42853 0.220129V0H4.95359C5.07315 0.68156 5.48096 1.26384 6.04682 1.61677ZM1.10565 7.70742C0.913584 7.45577 0.809771 7.14786 0.810259 6.8313C0.810259 6.03216 1.45847 5.3842 2.25822 5.3842C2.40723 5.38412 2.55538 5.40699 2.69743 5.45201V3.70218C2.53142 3.67946 2.36391 3.66977 2.19646 3.67333V5.0353C2.05433 4.99027 1.90612 4.96741 1.75703 4.96753C0.957323 4.96753 0.309145 5.61542 0.309145 6.41466C0.309145 6.9798 0.633126 7.46907 1.10565 7.70742Z" fill="#FF004F"/>
</svg>
