<svg width="8" height="9" viewBox="0 0 8 9" fill="none" xmlns="http://www.w3.org/2000/svg">
<path d="M8.0018 2.53301V2.19869C7.59063 2.19929 7.18759 2.0842 6.83873 1.86659C7.14753 2.20448 7.55415 2.43749 8.0018 2.53308M5.83521 0.382447C5.82476 0.322669 5.81673 0.262493 5.81115 0.202066V0H4.22999V6.27534C4.22748 7.00685 3.63348 7.59919 2.90091 7.59919C2.69324 7.5995 2.4884 7.55096 2.30295 7.45749C2.5458 7.77604 2.92931 7.98164 3.36094 7.98164C4.09344 7.98164 4.68751 7.38936 4.69008 6.65779V0.38248L5.83521 0.382447ZM3.30438 3.75439V3.39842C3.17226 3.38039 3.03906 3.37135 2.90571 3.37139C1.30088 3.37139 0 4.67157 0 6.27534C0 7.28084 0.511263 8.16698 1.28819 8.68823C0.775769 8.1647 0.46006 7.44813 0.46006 6.65775C0.46006 5.07442 1.72785 3.78695 3.30438 3.75439Z" fill="#00F2EA"/>
</svg>
