<svg width="12" height="14" viewBox="0 0 12 14" fill="none" xmlns="http://www.w3.org/2000/svg">
<path d="M8.51383 4.19265C9.4964 4.88098 10.6995 5.28597 11.9992 5.28597V3.35606C11.2737 3.20455 10.6315 2.83294 10.1487 2.31602C9.32222 1.81039 8.72672 0.976279 8.55212 0H6.73019V9.79287C6.72604 10.9345 5.78097 11.8589 4.61549 11.8589C3.92875 11.8589 3.31858 11.538 2.93219 11.0408C2.24219 10.6994 1.76897 9.99848 1.76897 9.18903C1.76897 8.04422 2.71562 7.11602 3.88357 7.11602C4.10735 7.11602 4.32302 7.15017 4.52534 7.2131V5.26209C2.01715 5.3129 0 7.32199 0 9.79292C0 11.0264 0.502302 12.1446 1.31758 12.9616C2.05307 13.4457 2.93845 13.7282 3.89109 13.7282C6.44415 13.7282 8.51389 11.6991 8.51389 9.19614L8.51383 4.19265Z" fill="black"/>
</svg>
