<svg width="21" height="27" viewBox="0 0 21 27" fill="none" xmlns="http://www.w3.org/2000/svg">
<path d="M19.6998 6.35261C20.1114 6.43595 20.5297 6.47966 20.9496 6.48263V10.9858C18.5962 10.9756 16.4176 10.2262 14.6343 8.95796V8.93578H14.4347L14.5375 9.00835V18.3684C14.5375 23.0368 10.7511 26.8205 6.08049 26.8205C3.87977 26.8204 1.87658 25.9796 0.371904 24.6021C1.64932 25.361 3.14116 25.7975 4.73498 25.7975C9.45842 25.7973 13.2878 21.9702 13.2878 17.2487V7.95613C15.0892 9.22027 17.2835 9.96378 19.6515 9.96381H19.6998V6.35261ZM5.95047 9.91745C6.36783 9.91091 6.7852 9.93543 7.19922 9.99002V14.5849C6.83203 14.4752 6.45084 14.4184 6.06738 14.4186C3.89196 14.4187 2.12862 16.1815 2.12862 18.3553C2.12747 19.1459 2.36774 19.915 2.81095 20.5656C1.65696 19.9029 0.878864 18.6611 0.878864 17.2356C0.878894 15.1149 2.59889 13.3957 4.72087 13.3956C5.11648 13.3953 5.50983 13.4565 5.88697 13.576L5.95047 13.5952V9.91745ZM14.5375 0.0483778V0.595652C14.6584 1.9233 15.1809 3.13455 15.9808 4.10909C14.6394 3.16665 13.6777 1.72205 13.3684 0.0483778H14.5375Z" fill="#FF004F" stroke="#0B0B10" stroke-width="0.09375"/>
</svg>
