<svg width="10" height="7" viewBox="0 0 10 7" fill="none" xmlns="http://www.w3.org/2000/svg">
<path d="M9.77448 1.09616C9.71715 0.884287 9.60531 0.691132 9.45012 0.535927C9.29492 0.380721 9.10177 0.26888 8.8899 0.21154C8.11426 0 4.99254 0 4.99254 0C4.99254 0 1.87068 0.00640317 1.09503 0.217943C0.88316 0.275286 0.690007 0.387134 0.534808 0.542346C0.379609 0.697559 0.267779 0.890722 0.210454 1.1026C-0.0241606 2.48077 -0.115172 4.58078 0.216896 5.90382C0.274227 6.11569 0.38606 6.30884 0.541259 6.46405C0.696457 6.61925 0.889607 6.73109 1.10147 6.78843C1.87712 6.99997 4.99891 6.99997 4.99891 6.99997C4.99891 6.99997 8.12066 6.99997 8.89626 6.78843C9.10814 6.7311 9.3013 6.61926 9.4565 6.46406C9.61171 6.30885 9.72355 6.11569 9.78088 5.90382C10.0283 4.5237 10.1046 2.42497 9.77448 1.09616Z" fill="#FF0000"/>
</svg>
