<svg width="12" height="14" viewBox="0 0 12 14" fill="none" xmlns="http://www.w3.org/2000/svg">
<path d="M7.74835 4.68091C8.70836 5.35368 9.88446 5.74953 11.1547 5.74953V3.35337C10.9143 3.35346 10.6745 3.32886 10.4393 3.27996V5.16609C9.1692 5.16609 7.99326 4.77029 7.03304 4.09757V8.9875C7.03304 11.4337 5.0102 13.4166 2.51512 13.4166C1.58415 13.4166 0.718805 13.1407 0 12.6674C0.82042 13.4898 1.96455 14 3.23028 14C5.72557 14 7.74845 12.0171 7.74845 9.57078V4.68091H7.74835ZM8.63085 2.26347C8.14021 1.73801 7.81804 1.05894 7.74835 0.308179V0H7.07045C7.2411 0.95418 7.82318 1.76937 8.63085 2.26347ZM1.57813 10.7903C1.30399 10.438 1.15582 10.007 1.15651 9.56377C1.15651 8.44499 2.08173 7.53785 3.22324 7.53785C3.43594 7.53774 3.64738 7.56975 3.85014 7.63278V5.18303C3.6132 5.15122 3.37409 5.13766 3.13509 5.14265V7.04939C2.93223 6.98635 2.72068 6.95435 2.50788 6.95452C1.36642 6.95452 0.441254 7.86156 0.441254 8.98049C0.441254 9.77168 0.903685 10.4567 1.57813 10.7903Z" fill="#FF004F"/>
</svg>
