<svg width="23" height="25" viewBox="0 0 23 25" fill="none" xmlns="http://www.w3.org/2000/svg">
<path d="M22.9992 7.28051V6.31959C21.8174 6.32131 20.659 5.99052 19.6562 5.36504C20.5438 6.33623 21.7125 7.00596 22.9992 7.2807M16.7719 1.09925C16.7418 0.927433 16.7188 0.754471 16.7027 0.580788V0H12.1581V18.0369C12.1508 20.1394 10.4435 21.842 8.33796 21.842C7.74104 21.8429 7.15229 21.7034 6.61925 21.4347C7.31728 22.3503 8.41957 22.9413 9.66019 22.9413C11.7656 22.9413 13.4731 21.2389 13.4805 19.1362V1.09934L16.7719 1.09925ZM9.49763 10.7911V9.76793C9.11787 9.71608 8.73502 9.69012 8.35173 9.69021C3.73906 9.69021 0 13.4273 0 18.0369C0 20.927 1.4695 23.474 3.70258 24.9722C2.22976 23.4674 1.32233 21.4078 1.32233 19.1361C1.32233 14.5852 4.96629 10.8847 9.49763 10.7911Z" fill="#00F2EA"/>
</svg>
