<svg width="13" height="14" viewBox="0 0 13 14" fill="none" xmlns="http://www.w3.org/2000/svg">
<path d="M12.9999 4.03635V3.50362C12.3319 3.50457 11.6771 3.32118 11.1104 2.97441C11.6121 3.51284 12.2727 3.88414 12.9999 4.03646M9.48002 0.60943C9.46304 0.514174 9.45 0.418283 9.44093 0.321992V0H6.87215V9.99976C6.86806 11.1654 5.90304 12.1093 4.71289 12.1093C4.3755 12.1098 4.04271 12.0325 3.74142 11.8835C4.13597 12.3911 4.75902 12.7188 5.46026 12.7188C6.6503 12.7188 7.61543 11.775 7.61962 10.6092V0.609483L9.48002 0.60943ZM5.36838 5.98263V5.41539C5.15373 5.38665 4.93733 5.37225 4.72068 5.37231C2.11344 5.37231 0 7.44416 0 9.99976C0 11.602 0.83061 13.0141 2.09282 13.8447C1.26033 13.0105 0.747425 11.8686 0.747425 10.6091C0.747425 8.08609 2.80711 6.03451 5.36838 5.98263Z" fill="#00F2EA"/>
</svg>
